<svg width="549" height="460" viewBox="0 0 549 460" fill="none" xmlns="http://www.w3.org/2000/svg">
<g filter="url(#filter0_f_4006_4)">
<path d="M11 27.2671C11 26.8803 11.2231 26.5282 11.5729 26.3629L43.896 11.0957C44.0296 11.0327 44.1754 10.9999 44.3231 10.9999H289.719C289.902 10.9999 290.081 11.0499 290.237 11.1443L315.732 26.5668C316.201 26.8502 316.738 26.9999 317.285 26.9999H537C537.552 26.9999 538 27.4476 538 27.9999V417.5C538 418.052 537.552 418.5 537 418.5H384.365C383.58 418.5 382.825 418.808 382.265 419.358L352.341 448.714C352.154 448.897 351.903 449 351.641 449H198.324C198.051 449 197.79 448.889 197.602 448.692L169.548 419.424C168.983 418.834 168.2 418.5 167.383 418.5H44.6423C44.3951 418.5 44.1568 418.408 43.9732 418.243L43.304 418.986L43.9732 418.243L11.3309 388.853C11.1203 388.663 11 388.393 11 388.109V27.2671Z" stroke="#FF8819" stroke-width="2"/>
</g>
<path d="M11 27.2671C11 26.8803 11.2231 26.5282 11.5729 26.3629L43.896 11.0957C44.0296 11.0327 44.1754 10.9999 44.3231 10.9999H289.719C289.902 10.9999 290.081 11.0499 290.237 11.1443L315.732 26.5668C316.201 26.8502 316.738 26.9999 317.285 26.9999H537C537.552 26.9999 538 27.4476 538 27.9999V417.5C538 418.052 537.552 418.5 537 418.5H384.365C383.58 418.5 382.825 418.808 382.265 419.358L352.341 448.714C352.154 448.897 351.903 449 351.641 449H198.324C198.051 449 197.79 448.889 197.602 448.692L169.548 419.424C168.983 418.834 168.2 418.5 167.383 418.5H44.6423C44.3951 418.5 44.1568 418.408 43.9732 418.243L43.304 418.986L43.9732 418.243L11.3309 388.853C11.1203 388.663 11 388.393 11 388.109V27.2671Z" stroke="#FF8819" stroke-width="2"/>
<defs>
<filter id="filter0_f_4006_4" x="0" y="0" width="549" height="460" filterUnits="userSpaceOnUse" color-interpolation-filters="sRGB">
<feFlood flood-opacity="0" result="BackgroundImageFix"/>
<feBlend mode="normal" in="SourceGraphic" in2="BackgroundImageFix" result="shape"/>
<feGaussianBlur stdDeviation="5" result="effect1_foregroundBlur_4006_4"/>
</filter>
</defs>
</svg>
