<svg width="1440" height="187" viewBox="0 0 1440 187" fill="none" xmlns="http://www.w3.org/2000/svg">
<g clip-path="url(#clip0_2449_53)">
<path d="M488.554 -1.20677C489.213 -1.20876 489.873 -1.21075 490.553 -1.21279C492.749 -1.21857 494.946 -1.21961 497.142 -1.22061C498.723 -1.22371 500.303 -1.22707 501.883 -1.23068C506.165 -1.23943 510.446 -1.24376 514.728 -1.24674C517.403 -1.2487 520.078 -1.25145 522.752 -1.25444C530.164 -1.26253 537.576 -1.26948 544.988 -1.27175C545.461 -1.27189 545.934 -1.27204 546.422 -1.27219C546.896 -1.27234 547.371 -1.27249 547.859 -1.27264C548.821 -1.27293 549.782 -1.27323 550.743 -1.27353C551.22 -1.27368 551.697 -1.27383 552.188 -1.27398C559.926 -1.27663 567.664 -1.28832 575.403 -1.30388C583.355 -1.31974 591.307 -1.32808 599.26 -1.32886C603.722 -1.32956 608.184 -1.33353 612.646 -1.34546C616.838 -1.35646 621.03 -1.35795 625.222 -1.35206C626.762 -1.35154 628.302 -1.35447 629.842 -1.36106C631.94 -1.36952 634.039 -1.36567 636.138 -1.35867C636.749 -1.36406 637.361 -1.36945 637.992 -1.375C641.528 -1.34733 644.038 -1.038 646.666 1.56318C647.151 7.18189 645.592 12.0799 643.975 17.4206C643.695 18.3638 643.415 19.3071 643.136 20.2505C642.551 22.2179 641.96 24.1833 641.365 26.1476C640.604 28.658 639.862 31.173 639.124 33.6899C638.551 35.6355 637.968 37.578 637.383 39.5198C637.105 40.4459 636.83 41.3731 636.559 42.3012C636.178 43.599 635.782 44.8924 635.386 46.1856C635.165 46.9206 634.944 47.6557 634.717 48.413C633.605 50.8849 632.604 52.0657 630.443 53.7452C628.357 54.2301 626.321 54.193 624.185 54.1638C623.553 54.1684 622.92 54.1731 622.268 54.1779C620.148 54.1894 618.027 54.1772 615.907 54.1651C614.386 54.1685 612.866 54.1735 611.346 54.1798C608.071 54.1902 604.797 54.1901 601.522 54.1818C596.341 54.1688 591.159 54.1789 585.978 54.1922C578.71 54.2083 571.443 54.2137 564.175 54.2098C556.708 54.2059 549.242 54.2052 541.775 54.2111C541.086 54.2117 541.086 54.2117 540.384 54.2122C532.711 54.2185 525.038 54.2303 517.366 54.2443C512.219 54.2531 507.072 54.2539 501.924 54.2482C498.716 54.2458 495.508 54.2487 492.299 54.2528C490.815 54.2535 489.332 54.252 487.848 54.2479C474.985 54.2143 463.615 54.7408 453.76 63.9526C446.789 71.2403 444.46 78.4144 444.315 88.2875C444.675 91.5825 445.655 93.6916 448.11 95.9585C453.922 99.9351 463 98.762 469.83 98.7496C470.914 98.7525 471.998 98.7561 473.081 98.7602C475.397 98.7678 477.714 98.7715 480.03 98.7721C483.702 98.7735 487.374 98.7856 491.045 98.7994C500.164 98.8322 509.282 98.853 518.4 98.8672C525.495 98.8783 532.589 98.8936 539.683 98.9227C543.324 98.9372 546.964 98.9427 550.605 98.9412C552.881 98.9423 555.156 98.9518 557.432 98.9634C558.477 98.9671 559.521 98.9675 560.565 98.9641C578.388 98.9123 594.698 104.472 607.686 116.788C620.321 129.826 621.42 145.255 621.067 162.46C620.9 166.98 620.21 171.142 618.953 175.503C618.807 176.022 618.662 176.54 618.512 177.074C612.571 197.792 599.971 217.29 583.128 231.03C582.778 231.317 582.428 231.603 582.067 231.899C558.839 250.603 531.153 255.218 502.169 255.211C500.477 255.213 498.786 255.216 497.094 255.218C492.994 255.223 488.894 255.225 484.795 255.226C481.462 255.226 478.13 255.228 474.798 255.23C465.335 255.236 455.873 255.239 446.411 255.238C445.902 255.238 445.393 255.238 444.869 255.238C444.105 255.238 444.105 255.238 443.326 255.238C435.058 255.238 426.79 255.244 418.521 255.253C410.017 255.263 401.514 255.268 393.01 255.267C388.241 255.267 383.472 255.269 378.703 255.276C374.224 255.283 369.744 255.283 365.264 255.278C363.621 255.277 361.977 255.279 360.333 255.283C358.09 255.288 355.847 255.285 353.604 255.279C352.627 255.285 352.627 255.285 351.631 255.29C343.527 255.249 343.527 255.249 340.509 252.647C338.899 249.179 339.882 245.523 340.927 242.008C341.175 241.162 341.424 240.316 341.68 239.444C341.954 238.533 342.23 237.622 342.505 236.711C342.787 235.766 343.069 234.821 343.35 233.876C343.939 231.901 344.532 229.927 345.129 227.955C345.892 225.433 346.642 222.907 347.388 220.381C347.966 218.43 348.551 216.481 349.138 214.533C349.418 213.603 349.695 212.673 349.969 211.741C350.355 210.437 350.751 209.137 351.148 207.837C351.481 206.728 351.481 206.728 351.821 205.597C352.865 203.032 354.133 200.852 356.689 199.587C357.664 199.524 358.641 199.502 359.618 199.502C360.237 199.5 360.856 199.498 361.493 199.496C362.178 199.497 362.862 199.498 363.567 199.499C364.291 199.498 365.015 199.496 365.76 199.495C368.202 199.491 370.643 199.492 373.084 199.492C374.828 199.49 376.572 199.488 378.316 199.485C382.081 199.48 385.846 199.476 389.611 199.474C395.568 199.471 401.525 199.459 407.481 199.447C409.52 199.442 411.558 199.438 413.596 199.434C414.106 199.433 414.615 199.432 415.14 199.431C420.943 199.419 426.746 199.408 432.549 199.398C433.345 199.396 433.345 199.396 434.157 199.395C442.74 199.38 451.323 199.373 459.906 199.368C468.723 199.363 477.54 199.347 486.357 199.323C491.791 199.308 497.225 199.301 502.66 199.306C506.833 199.308 511.007 199.296 515.18 199.28C516.887 199.275 518.593 199.275 520.3 199.28C532.697 199.311 543.625 198.864 553.218 190.054C559.079 183.83 562.427 175.799 562.926 167.344C562.813 164.562 562.021 162.627 560.822 160.116C560.599 159.454 560.376 158.791 560.146 158.109C558.627 157.34 558.627 157.34 556.766 156.771C556.15 156.541 555.535 156.311 554.9 156.074C552.563 155.39 550.663 155.262 548.229 155.256C547.338 155.25 546.447 155.245 545.528 155.239C544.548 155.24 543.568 155.24 542.588 155.241C541.55 155.237 540.511 155.232 539.473 155.227C537.239 155.217 535.005 155.211 532.771 155.209C529.226 155.204 525.682 155.19 522.137 155.173C514.599 155.141 507.061 155.119 499.523 155.099C491.414 155.076 483.304 155.052 475.194 155.016C472.254 155.003 469.315 154.992 466.375 154.989C436.91 154.949 436.91 154.949 425.508 152.004C424.954 151.863 424.4 151.722 423.829 151.577C415.306 149.258 407.84 145.281 401.301 139.377C400.89 139.031 400.479 138.685 400.055 138.329C391.737 130.864 386.583 119.118 385.594 108.163C384.644 88.3795 389.634 69.0346 399.273 51.7382C399.671 51.0094 400.068 50.2807 400.477 49.5299C406.509 38.853 415.423 28.9411 425.381 21.675C425.856 21.328 426.33 20.981 426.819 20.6235C444.759 7.64131 466.113 -1.22824 488.554 -1.20677Z" fill="#5E5E5E"/>
<path d="M1275.32 -1.29607C1276.46 -1.29898 1277.59 -1.30245 1278.72 -1.30643C1281.77 -1.31532 1284.83 -1.31578 1287.88 -1.31408C1290.44 -1.31336 1293 -1.31664 1295.56 -1.31984C1301.61 -1.32724 1307.66 -1.32756 1313.71 -1.32351C1319.92 -1.31947 1326.13 -1.32769 1332.34 -1.34195C1337.7 -1.3538 1343.06 -1.35774 1348.42 -1.35557C1351.61 -1.35437 1354.8 -1.35603 1357.99 -1.36542C1360.99 -1.37393 1364 -1.37244 1367 -1.3638C1368.09 -1.36224 1369.18 -1.36397 1370.27 -1.36957C1389.37 -1.4604 1407.91 3.05527 1422.12 16.3575C1434.67 29.5213 1439.04 47.9208 1438.95 65.5727C1438 95.6212 1423.3 133.169 1402.41 155.285C1401.15 156.621 1399.99 157.997 1398.81 159.406C1380.81 179.832 1350.08 192.046 1323.28 194.236C1317.74 194.531 1312.18 194.579 1306.63 194.654C1305.05 194.679 1303.47 194.704 1301.89 194.729C1297.3 194.799 1292.72 194.856 1288.13 194.905C1287.53 194.911 1286.92 194.917 1286.3 194.924C1279.18 194.996 1272.07 194.985 1264.95 194.92C1262.89 194.903 1260.82 194.891 1258.75 194.879C1254.79 194.855 1250.82 194.814 1246.86 194.764C1245.29 194.746 1243.72 194.733 1242.15 194.724C1239.96 194.709 1237.77 194.678 1235.57 194.643C1234.58 194.642 1234.58 194.642 1233.57 194.641C1230.99 194.585 1229.16 194.506 1226.86 193.29C1223.93 187.773 1226.81 181.084 1228.53 175.577C1228.8 174.696 1229.07 173.815 1229.34 172.934C1229.9 171.1 1230.46 169.267 1231.03 167.436C1231.76 165.098 1232.47 162.756 1233.19 160.413C1233.74 158.599 1234.29 156.785 1234.85 154.972C1235.24 153.693 1235.63 152.413 1236.03 151.133C1236.27 150.351 1236.51 149.569 1236.76 148.764C1237.08 147.738 1237.08 147.738 1237.41 146.691C1238.39 143.942 1239.39 141.457 1241.49 139.378C1243.77 138.773 1245.91 138.628 1248.26 138.642C1248.93 138.644 1249.59 138.646 1250.28 138.648C1251 138.653 1251.73 138.659 1252.47 138.664C1253.24 138.668 1254.01 138.671 1254.8 138.674C1256.47 138.681 1258.15 138.689 1259.82 138.699C1262.47 138.714 1265.13 138.723 1267.78 138.731C1275.34 138.753 1282.89 138.781 1290.44 138.823C1294.62 138.847 1298.79 138.862 1302.96 138.87C1305.16 138.875 1307.36 138.884 1309.56 138.9C1327.95 139.035 1346.51 138.767 1360.62 125.496C1372.44 113.245 1379.74 91.2512 1379.48 74.4167C1379.15 67.8487 1377.85 62.5792 1372.78 58.0288C1363.05 51.5382 1346.15 54.216 1334.83 54.2349C1332.12 54.2383 1329.41 54.2351 1326.71 54.2331C1322.17 54.2306 1317.63 54.2338 1313.09 54.2402C1307.86 54.2475 1302.63 54.2451 1297.41 54.2378C1292.89 54.2317 1288.37 54.2308 1283.86 54.2343C1281.17 54.2364 1278.48 54.2367 1275.8 54.2323C1273.28 54.2284 1270.75 54.2312 1268.23 54.2388C1266.88 54.2414 1265.53 54.2375 1264.17 54.2333C1253.62 54.2029 1253.62 54.2029 1244.2 58.3611C1237.96 64.8433 1235.94 75.4769 1233.48 83.7931C1233.05 85.2467 1232.61 86.7 1232.17 88.1532C1230.99 92.0627 1229.82 95.9753 1228.66 99.8886C1227.43 104.008 1226.19 108.124 1224.95 112.241C1223.42 117.333 1221.89 122.425 1220.37 127.518C1217.01 138.721 1213.63 149.916 1210.23 161.104C1210.01 161.833 1209.79 162.562 1209.56 163.313C1208.46 166.916 1207.37 170.519 1206.27 174.122C1198.96 198.153 1198.96 198.153 1191.8 222.229C1191.67 222.702 1191.53 223.175 1191.38 223.662C1190.02 228.294 1188.67 232.928 1187.33 237.567C1186.92 238.967 1186.51 240.366 1186.1 241.766C1185.84 242.678 1185.84 242.678 1185.58 243.609C1183.31 251.353 1183.31 251.353 1181.33 253.776C1176.69 255.801 1171.4 255.308 1166.4 255.292C1165.48 255.293 1164.55 255.294 1163.63 255.296C1161.71 255.298 1159.79 255.295 1157.87 255.289C1155.42 255.281 1152.97 255.286 1150.52 255.294C1148.62 255.299 1146.72 255.297 1144.82 255.294C1143.48 255.292 1142.14 255.296 1140.8 255.3C1132.81 255.259 1132.81 255.259 1129.29 253.776C1127.48 251.095 1127.62 248.85 1127.93 245.748C1128.49 243.108 1129.27 240.551 1130.07 237.974C1130.3 237.213 1130.53 236.453 1130.77 235.669C1131.4 233.574 1132.04 231.481 1132.68 229.389C1133.38 227.119 1134.06 224.847 1134.75 222.575C1135.77 219.18 1136.8 215.786 1137.84 212.393C1139.74 206.128 1141.63 199.857 1143.51 193.582C1144.09 191.644 1144.67 189.707 1145.25 187.769C1145.39 187.282 1145.54 186.795 1145.69 186.294C1152.03 165.125 1158.43 143.974 1164.83 122.825C1165.48 120.688 1166.12 118.552 1166.77 116.415C1169.58 107.117 1172.41 97.8225 1175.25 88.5336C1175.55 87.5543 1175.55 87.5543 1175.85 86.5552C1177.04 82.6759 1178.24 78.7983 1179.44 74.923C1179.8 73.7362 1180.17 72.5488 1180.53 71.3611C1184.78 57.5438 1189.8 44.4623 1198.91 33.0067C1199.4 32.3719 1199.9 31.7372 1200.41 31.0833C1203.46 27.2756 1206.57 23.9913 1210.4 20.9647C1211.29 20.2157 1211.29 20.2157 1212.19 19.4516C1221.76 11.6887 1233.06 6.39307 1244.87 2.90168C1245.31 2.77006 1245.75 2.63843 1246.21 2.50282C1255.88 -0.338592 1265.26 -1.31337 1275.32 -1.29607Z" fill="#5E5E5E"/>
<path d="M879.043 -1.79291C879.537 -1.79293 880.03 -1.79295 880.538 -1.79297C894.785 -1.79163 894.785 -1.79163 901.414 -1.64313C902.4 -1.62341 903.386 -1.60968 904.373 -1.60067C905.874 -1.58644 907.375 -1.55553 908.877 -1.52063C910.14 -1.49961 910.14 -1.49961 911.43 -1.47817C914.159 -1.02929 915.273 -0.56937 917.03 1.56304C917.845 7.0663 915.924 12.1841 914.339 17.4204C914.059 18.3636 913.779 19.3069 913.5 20.2504C912.915 22.2178 912.324 24.1832 911.729 26.1475C910.969 28.6578 910.226 31.1729 909.488 33.6897C908.915 35.6353 908.333 37.5779 907.747 39.5197C907.469 40.4458 907.194 41.3729 906.923 42.301C906.542 43.5989 906.146 44.8923 905.75 46.1854C905.529 46.9205 905.309 47.6555 905.081 48.4128C903.919 50.997 903.211 52.1441 900.808 53.745C897.826 54.23 894.876 54.1669 891.861 54.1247C890.942 54.1238 890.022 54.1243 889.103 54.1262C886.611 54.1272 884.12 54.1075 881.629 54.0842C879.024 54.0632 876.418 54.0613 873.813 54.0573C868.882 54.0469 863.951 54.0195 859.019 53.9859C853.404 53.9485 847.789 53.9301 842.174 53.9133C830.625 53.8784 819.077 53.8195 807.528 53.745C807.443 54.1833 807.359 54.6217 807.271 55.0733C806.658 58.1846 806.016 61.243 805.08 64.2778C804.766 65.3062 804.766 65.3062 804.445 66.3554C804.218 67.0854 803.991 67.8154 803.758 68.5675C803.516 69.3575 803.273 70.1474 803.024 70.9613C802.497 72.6793 801.968 74.397 801.438 76.1142C800.126 80.367 798.824 84.6231 797.522 88.8789C797.215 89.8803 796.909 90.8818 796.602 91.8831C793.244 102.846 789.942 113.826 786.65 124.809C785.249 129.486 783.845 134.162 782.442 138.839C782.283 139.368 782.125 139.897 781.961 140.442C777.085 156.691 772.182 172.931 767.271 189.169C767.089 189.772 766.907 190.375 766.719 190.996C766.537 191.596 766.356 192.196 766.169 192.814C765.989 193.411 765.808 194.008 765.623 194.622C765.261 195.817 764.9 197.012 764.538 198.207C762.363 205.401 760.195 212.596 758.037 219.795C757.035 223.141 756.03 226.485 755.023 229.83C754.369 232.004 753.717 234.18 753.068 236.356C752.371 238.695 751.668 241.033 750.964 243.37C750.764 244.046 750.564 244.721 750.358 245.418C748.407 251.85 748.407 251.85 746.694 253.776C742.205 255.839 737.058 255.321 732.204 255.315C731.252 255.318 730.3 255.321 729.348 255.324C727.36 255.329 725.371 255.329 723.383 255.325C720.844 255.321 718.306 255.332 715.767 255.348C713.804 255.358 711.84 255.358 709.877 255.356C708.941 255.357 708.005 255.36 707.07 255.367C697.86 255.425 697.86 255.425 693.971 253.107C691.684 248.581 693.943 242.771 695.339 238.279C695.561 237.541 695.782 236.804 696.011 236.044C696.629 233.996 697.254 231.951 697.882 229.906C698.564 227.679 699.236 225.449 699.909 223.22C701.102 219.271 702.302 215.324 703.504 211.377C705.561 204.623 707.599 197.864 709.636 191.104C710.363 188.695 711.089 186.286 711.815 183.876C712.088 182.97 712.088 182.97 712.367 182.046C714.429 175.207 716.496 168.37 718.563 161.532C721.449 151.989 724.333 142.446 727.213 132.901C727.381 132.346 727.548 131.792 727.721 131.22C729.517 125.27 731.312 119.319 733.107 113.368C733.577 111.812 734.046 110.257 734.516 108.701C734.823 107.682 735.131 106.662 735.438 105.643C737.366 99.2526 739.296 92.8629 741.229 86.4741C742.189 83.2994 743.149 80.1244 744.108 76.9493C744.739 74.8613 745.371 72.7736 746.003 70.6861C746.684 68.4402 747.362 66.1938 748.041 63.9472C748.239 63.2942 748.438 62.6411 748.642 61.9682C748.822 61.3691 749.003 60.77 749.189 60.1528C749.345 59.6381 749.5 59.1235 749.661 58.5933C750.102 56.988 750.438 55.3792 750.75 53.745C749.794 53.7754 749.794 53.7754 748.819 53.8064C733.127 54.292 717.438 54.4885 701.738 54.4965C700.37 54.4976 699.003 54.5 697.635 54.5027C691.681 54.5118 685.729 54.4784 679.776 54.414C678.954 54.4087 678.131 54.4034 677.284 54.3979C674.925 54.3776 672.568 54.3342 670.21 54.2833C669.506 54.2798 668.802 54.2763 668.076 54.2727C663.377 54.1345 663.377 54.1345 661.068 52.3315C659.354 48.6262 660.185 45.0934 661.31 41.3081C661.683 40.039 661.683 40.039 662.063 38.7443C662.338 37.8332 662.613 36.9222 662.889 36.0113C663.17 35.0661 663.452 34.1209 663.733 33.1756C664.322 31.2006 664.916 29.2271 665.513 27.2545C666.275 24.7327 667.025 22.2073 667.771 19.6807C668.349 17.7299 668.934 15.7814 669.522 13.8335C669.801 12.9033 670.078 11.9725 670.353 11.0409C670.738 9.73734 671.134 8.43701 671.531 7.13683C671.753 6.39777 671.975 5.6587 672.204 4.89723C673.249 2.33203 674.516 0.152221 677.073 -1.11296C678.078 -1.17852 679.086 -1.2025 680.093 -1.20573C680.733 -1.20939 681.372 -1.21305 682.031 -1.21683C682.739 -1.21748 683.446 -1.21814 684.175 -1.21881C684.923 -1.22211 685.671 -1.22542 686.442 -1.22882C688.967 -1.23915 691.492 -1.24471 694.017 -1.25032C695.821 -1.25673 697.625 -1.2634 699.43 -1.27039C703.838 -1.28689 708.247 -1.29985 712.656 -1.31171C717.811 -1.32572 722.965 -1.34342 728.119 -1.36133C737.345 -1.39327 746.57 -1.42218 755.796 -1.44926C764.697 -1.47539 773.598 -1.5031 782.499 -1.53288C783.044 -1.53471 783.589 -1.53653 784.15 -1.53841C786.342 -1.54574 788.533 -1.55309 790.725 -1.56045C800.801 -1.59424 810.878 -1.6269 820.955 -1.65914C821.46 -1.66075 821.964 -1.66237 822.485 -1.66404C862.913 -1.79324 862.913 -1.79324 879.043 -1.79291Z" fill="#5E5E5E"/>
<path d="M185.483 52.979C186.487 52.977 187.492 52.9747 188.496 52.9722C191.214 52.9663 193.932 52.9647 196.651 52.9643C198.355 52.9638 200.06 52.9624 201.765 52.9606C207.732 52.9544 213.7 52.9517 219.667 52.9522C225.196 52.9526 230.725 52.9456 236.253 52.935C241.024 52.9262 245.795 52.9227 250.565 52.9231C253.404 52.9233 256.242 52.9214 259.08 52.9143C284.729 52.8541 308.388 53.9216 328.06 72.1923C340.675 85.1362 343.564 100.575 343.334 118.006C343.158 124.284 342.118 129.983 340.456 136.032C340.249 136.789 340.041 137.547 339.827 138.327C337.67 146.068 335.346 153.761 333.021 161.454C332.777 162.263 332.532 163.072 332.28 163.905C329.67 172.544 327.055 181.181 324.424 189.814C321.446 199.591 318.492 209.374 315.62 219.183C314.746 222.165 313.866 225.145 312.987 228.126C312.156 230.95 311.334 233.776 310.519 236.605C310.135 237.929 309.747 239.252 309.356 240.574C308.883 242.176 308.418 243.781 307.962 245.389C307.751 246.096 307.539 246.804 307.321 247.533C307.143 248.145 306.965 248.757 306.782 249.387C305.727 251.651 304.585 252.903 302.604 254.445C300.445 254.856 300.445 254.856 297.982 254.846C297.531 254.849 297.08 254.851 296.615 254.854C295.132 254.858 293.65 254.839 292.166 254.819C291.132 254.816 290.098 254.814 289.063 254.814C286.899 254.81 284.735 254.795 282.571 254.771C279.799 254.741 277.027 254.731 274.254 254.728C272.12 254.725 269.985 254.715 267.851 254.702C266.829 254.696 265.806 254.692 264.784 254.689C263.356 254.683 261.927 254.668 260.499 254.65C259.687 254.643 258.874 254.636 258.037 254.628C254.852 254.347 254.852 254.347 253.261 253.107C252.407 250.702 252.604 248.99 253.313 246.579C253.493 245.954 253.673 245.329 253.859 244.685C254.064 244.002 254.269 243.32 254.48 242.617C254.694 241.886 254.907 241.155 255.127 240.402C255.848 237.945 256.581 235.491 257.316 233.037C257.573 232.174 257.829 231.312 258.086 230.449C259.936 224.22 261.81 217.997 263.687 211.776C264.493 209.102 265.298 206.428 266.102 203.753C266.266 203.21 266.43 202.666 266.598 202.106C266.931 200.998 267.265 199.89 267.598 198.782C268.104 197.102 268.609 195.422 269.115 193.742C272.494 182.516 275.864 171.286 279.226 160.054C279.854 157.955 280.483 155.857 281.113 153.758C281.851 151.298 282.588 148.838 283.324 146.377C283.593 145.476 283.863 144.576 284.134 143.676C284.503 142.446 284.87 141.216 285.238 139.987C285.443 139.299 285.649 138.612 285.861 137.904C287.696 131.299 288.279 123.768 285.249 117.444C281.908 111.913 278.067 109.089 271.909 107.243C268.251 106.354 264.641 106.409 260.893 106.423C260.116 106.421 259.34 106.418 258.54 106.416C255.986 106.41 253.433 106.414 250.879 106.418C249.102 106.418 247.324 106.416 245.547 106.415C241.83 106.412 238.113 106.415 234.396 106.422C230.097 106.429 225.798 106.427 221.499 106.419C217.359 106.412 213.219 106.413 209.078 106.417C207.317 106.418 205.556 106.417 203.796 106.414C201.342 106.41 198.889 106.416 196.436 106.423C195.337 106.419 195.337 106.419 194.216 106.415C193.551 106.419 192.886 106.422 192.201 106.426C191.621 106.427 191.041 106.427 190.443 106.428C188.896 106.47 188.896 106.47 187.695 107.934C187.213 109.29 186.787 110.666 186.388 112.049C186.265 112.473 186.141 112.898 186.014 113.335C185.602 114.754 185.196 116.175 184.79 117.595C184.5 118.6 184.209 119.605 183.918 120.609C183.298 122.752 182.68 124.896 182.065 127.041C181.106 130.384 180.14 133.726 179.173 137.067C176.5 146.315 173.841 155.567 171.199 164.824C170.323 167.892 169.445 170.959 168.567 174.026C167.974 176.101 167.387 178.177 166.801 180.254C166.447 181.492 166.094 182.73 165.74 183.968C165.585 184.523 165.43 185.078 165.27 185.65C164.191 189.4 164.191 189.4 162.685 190.89C159.51 191.099 156.797 190.74 153.736 189.929C152.933 189.719 152.131 189.509 151.303 189.292C150.449 189.062 149.595 188.833 148.715 188.596C147.819 188.358 146.923 188.122 146.027 187.885C144.156 187.391 142.286 186.892 140.418 186.39C138.026 185.748 135.632 185.114 133.238 184.483C131.39 183.995 129.544 183.504 127.697 183.012C126.387 182.664 125.076 182.317 123.766 181.97C122.969 181.755 122.173 181.541 121.352 181.321C120.652 181.133 119.952 180.946 119.23 180.753C115.965 179.743 115.965 179.743 114.694 178.848C113.607 176.05 114.28 173.919 115.113 171.114C115.301 170.468 115.301 170.468 115.494 169.809C115.914 168.375 116.345 166.944 116.777 165.513C117.079 164.49 117.38 163.468 117.681 162.445C118.493 159.688 119.315 156.934 120.138 154.181C120.994 151.314 121.841 148.444 122.688 145.575C123.901 141.474 125.116 137.373 126.334 133.273C128.399 126.325 130.441 119.371 132.469 112.413C132.748 111.457 133.027 110.501 133.306 109.544C134.354 105.952 135.402 102.359 136.448 98.7653C144.09 72.5335 144.09 72.5335 148.49 67.1252C148.886 66.6181 149.282 66.111 149.689 65.5886C155.895 58.1177 164.159 54.3555 173.79 53.2145C177.678 52.9051 181.584 52.9775 185.483 52.979Z" fill="#5E5E5E"/>
<path d="M920.236 99.0575C921.096 99.0545 921.957 99.0515 922.844 99.0483C925.222 99.0402 927.6 99.0403 929.978 99.0419C932.547 99.0422 935.116 99.0348 937.684 99.0284C942.712 99.0173 947.739 99.0137 952.766 99.0129C956.851 99.0123 960.937 99.0095 965.022 99.0053C976.606 98.9935 988.189 98.9873 999.773 98.9883C1000.71 98.9884 1000.71 98.9884 1001.66 98.9885C1002.6 98.9886 1002.6 98.9886 1003.56 98.9887C1013.69 98.9892 1023.83 98.9764 1033.96 98.9575C1044.37 98.9383 1054.78 98.9291 1065.19 98.9302C1071.03 98.9307 1076.88 98.927 1082.72 98.9126C1087.69 98.9004 1092.66 98.8975 1097.64 98.9066C1100.17 98.911 1102.71 98.911 1105.25 98.8994C1108 98.887 1110.74 98.8953 1113.49 98.9056C1114.3 98.8987 1115.1 98.8919 1115.93 98.8848C1121.29 98.9296 1121.29 98.9296 1124.04 100.455C1125.22 101.912 1125.22 101.912 1125.5 104.162C1125.24 106.471 1124.82 108.518 1124.15 110.743C1123.92 111.541 1123.68 112.338 1123.44 113.16C1123.17 114.025 1122.91 114.889 1122.65 115.752C1122.37 116.654 1122.1 117.556 1121.83 118.458C1121.25 120.388 1120.66 122.317 1120.07 124.246C1119.26 126.921 1118.47 129.603 1117.69 132.288C1117.04 134.492 1116.39 136.693 1115.73 138.894C1115.41 139.964 1115.1 141.034 1114.79 142.106C1114.35 143.614 1113.9 145.116 1113.45 146.618C1113.32 147.065 1113.2 147.512 1113.07 147.973C1112.12 151.009 1110.99 152.367 1108.33 154.094C1106.41 154.427 1106.41 154.427 1104.26 154.424C1103.44 154.429 1102.61 154.434 1101.77 154.44C1100.86 154.432 1099.95 154.424 1099.04 154.416C1098.07 154.417 1097.1 154.42 1096.14 154.423C1093.48 154.429 1090.82 154.418 1088.16 154.405C1085.29 154.393 1082.43 154.397 1079.56 154.399C1074.59 154.401 1069.62 154.392 1064.66 154.377C1057.47 154.356 1050.29 154.349 1043.11 154.345C1031.45 154.339 1019.8 154.322 1008.15 154.296C996.828 154.272 985.508 154.253 974.187 154.241C973.141 154.24 973.141 154.24 972.073 154.239C968.573 154.236 965.073 154.232 961.573 154.229C932.532 154.201 903.492 154.154 874.451 154.094C874.774 152.809 875.097 151.524 875.42 150.239C875.6 149.524 875.779 148.808 875.965 148.071C884.673 114.128 884.673 114.128 898.109 104.588C905.5 100.25 911.763 99.0356 920.236 99.0575Z" fill="#5E5E5E"/>
<path d="M976.107 -1.20677C976.95 -1.20876 977.794 -1.21075 978.663 -1.21279C980.996 -1.21817 983.33 -1.21939 985.663 -1.21988C988.182 -1.22113 990.702 -1.22618 993.221 -1.23068C998.725 -1.23975 1004.23 -1.24379 1009.73 -1.24674C1013.17 -1.24859 1016.6 -1.25143 1020.04 -1.25444C1029.56 -1.26259 1039.07 -1.26948 1048.59 -1.27175C1049.5 -1.27197 1049.5 -1.27197 1050.43 -1.27219C1051.35 -1.27241 1051.35 -1.27241 1052.28 -1.27264C1053.51 -1.27293 1054.75 -1.27323 1055.99 -1.27353C1056.6 -1.27368 1057.21 -1.27383 1057.84 -1.27398C1067.79 -1.27662 1077.73 -1.28831 1087.67 -1.30388C1097.88 -1.31973 1108.09 -1.32808 1118.3 -1.32886C1124.04 -1.32947 1129.77 -1.33333 1135.5 -1.34546C1140.38 -1.35575 1145.26 -1.3592 1150.14 -1.35367C1152.63 -1.35105 1155.11 -1.3517 1157.6 -1.36106C1160.3 -1.37112 1163 -1.36568 1165.69 -1.35867C1166.88 -1.36675 1166.88 -1.36675 1168.08 -1.375C1169.17 -1.36839 1169.17 -1.36839 1170.27 -1.36164C1170.89 -1.36204 1171.52 -1.36244 1172.16 -1.36285C1174.47 -1.03043 1176.29 -0.0788108 1177.95 1.56318C1178.44 7.15729 1176.87 11.9732 1175.21 17.2742C1174.93 18.2024 1174.65 19.1307 1174.36 20.0592C1173.77 21.995 1173.18 23.929 1172.57 25.8618C1171.81 28.3327 1171.05 30.807 1170.3 33.2825C1169.71 35.196 1169.13 37.108 1168.54 39.0195C1168.26 39.9314 1167.98 40.8435 1167.7 41.7561C1167.31 43.0314 1166.91 44.3048 1166.52 45.578C1166.29 46.3011 1166.07 47.0243 1165.84 47.7693C1164.04 52.6024 1164.04 52.6024 1161.73 53.7451C1160.45 53.8085 1159.17 53.8279 1157.9 53.8275C1157.08 53.8288 1156.26 53.8301 1155.41 53.8315C1154.5 53.8296 1153.58 53.8276 1152.66 53.8256C1151.69 53.8259 1150.72 53.8265 1149.75 53.8273C1147.08 53.8288 1144.41 53.8261 1141.74 53.8228C1138.86 53.8199 1135.99 53.8209 1133.11 53.8214C1128.12 53.8217 1123.13 53.8196 1118.15 53.8159C1110.94 53.8104 1103.72 53.8087 1096.51 53.8079C1084.81 53.8064 1073.11 53.8019 1061.42 53.7956C1050.05 53.7895 1038.68 53.7847 1027.31 53.7819C1026.26 53.7816 1026.26 53.7816 1025.19 53.7814C1021.68 53.7805 1018.17 53.7796 1014.65 53.7788C985.495 53.7719 956.336 53.7601 927.178 53.7451C928.003 50.9176 928.829 48.0904 929.656 45.2635C929.937 44.3048 930.217 43.3461 930.496 42.3873C939.546 11.3738 939.546 11.3738 952.208 3.9282C960.277 -0.201088 967.182 -1.21335 976.107 -1.20677Z" fill="#5E5E5E"/>
<path d="M83.6117 -1.44902C84.3064 -1.45445 84.3064 -1.45445 85.0152 -1.45998C86.5389 -1.46831 88.0618 -1.45731 89.5855 -1.44527C90.6486 -1.44537 91.7117 -1.44637 92.7747 -1.44822C94.9998 -1.44914 97.2246 -1.44076 99.4497 -1.4255C102.298 -1.40651 105.145 -1.40835 107.993 -1.41687C110.188 -1.42153 112.382 -1.4163 114.576 -1.408C115.626 -1.40498 116.676 -1.40475 117.726 -1.40737C119.195 -1.40933 120.663 -1.39825 122.132 -1.38369C123.384 -1.37827 123.384 -1.37827 124.662 -1.37274C127.066 -1.09009 128.35 -0.577195 130.247 0.893618C131.623 5.07034 130.294 8.66936 129.059 12.7135C128.846 13.4365 128.634 14.1595 128.414 14.9044C127.813 16.9367 127.203 18.966 126.588 20.9941C126.185 22.3242 125.785 23.6552 125.386 24.9865C123.396 31.6284 121.379 38.2626 119.358 44.8955C117.918 49.6256 116.482 54.3571 115.046 59.0883C114.672 60.3185 114.299 61.5486 113.925 62.7787C110.233 74.9359 106.565 87.1002 102.908 99.2678C101.846 102.803 100.782 106.339 99.717 109.874C96.3564 121.03 93.0106 132.191 89.7302 143.371C88.843 146.39 87.951 149.409 87.0589 152.427C86.2358 155.215 85.4215 158.006 84.6143 160.798C84.0085 162.885 83.3899 164.968 82.7734 167.051C82.5636 167.788 82.3538 168.526 82.1377 169.285C80.9639 173.204 79.866 176.003 76.8484 178.848C74.5868 179.594 72.8702 179.611 70.4867 179.624C70.0501 179.628 69.6136 179.631 69.1637 179.634C67.7207 179.644 66.2777 179.649 64.8347 179.652C63.8303 179.656 62.8259 179.66 61.8216 179.664C59.7158 179.671 57.61 179.675 55.5042 179.677C52.8093 179.681 50.1146 179.697 47.4197 179.716C45.3449 179.728 43.2701 179.732 41.1953 179.733C40.2019 179.735 39.2086 179.74 38.2153 179.749C36.8239 179.761 35.433 179.759 34.0416 179.755C33.2507 179.757 32.4598 179.76 31.6449 179.762C29.2834 179.487 28.041 178.919 26.1532 177.51C24.3308 174.804 24.4438 172.609 24.8013 169.482C25.5385 166.23 26.5184 163.058 27.5077 159.875C27.7988 158.917 28.0891 157.958 28.3788 156.999C29.003 154.938 29.6324 152.879 30.266 150.821C31.2846 147.512 32.2917 144.2 33.2972 140.887C34.7107 136.233 36.129 131.581 37.5503 126.93C39.5564 120.363 41.5453 113.792 43.5268 107.218C43.6832 106.699 43.8396 106.18 44.0007 105.646C44.6326 103.549 45.2645 101.453 45.8962 99.3559C47.0055 95.6741 48.1166 91.9929 49.2286 88.3119C52.7733 76.5769 56.3095 64.8394 59.8364 53.0991C60.2248 51.8064 60.6133 50.5136 61.0017 49.2209C62.6919 43.5952 64.3816 37.9694 66.0696 32.343C66.7618 30.036 67.4547 27.7292 68.1478 25.4224C68.4665 24.3611 68.7849 23.2996 69.1031 22.2381C69.8226 19.8372 70.5458 17.4376 71.2787 15.0407C71.8643 13.122 72.4214 11.1974 72.9652 9.26667C73.2476 8.2982 73.5302 7.32978 73.8129 6.36142C73.9922 5.69572 73.9922 5.69572 74.175 5.01657C75.7027 -0.108697 78.417 -1.44833 83.6117 -1.44902Z" fill="#5E5E5E"/>
</g>
<defs>
<clipPath id="clip0_2449_53">
<rect width="1440" height="254" fill="white"/>
</clipPath>
</defs>
</svg>
