<svg width="32" height="30" viewBox="0 0 32 30" fill="none" xmlns="http://www.w3.org/2000/svg">
<path d="M30.2776 7.31591C30.4832 6.62146 30.2776 6.11035 29.2888 6.11035H26.0165C25.1832 6.11035 24.7999 6.54924 24.5943 7.03813C24.5943 7.03813 22.9276 11.0992 20.5721 13.7326C19.811 14.4937 19.461 14.7381 19.0443 14.7381C18.8388 14.7381 18.5221 14.4937 18.5221 13.7992V7.31591C18.5221 6.48257 18.2888 6.11035 17.5999 6.11035H12.4554C11.9332 6.11035 11.6221 6.49924 11.6221 6.86035C11.6221 7.64924 12.7999 7.83257 12.9221 10.0548V14.877C12.9221 15.9326 12.7332 16.127 12.3165 16.127C11.2054 16.127 8.50543 12.0492 6.90543 7.38257C6.5832 6.47702 6.26654 6.11035 5.42765 6.11035H2.15543C1.22209 6.11035 1.0332 6.54924 1.0332 7.03813C1.0332 7.9048 2.14431 12.2104 6.20543 17.8992C8.91098 21.7826 12.7221 23.8881 16.1888 23.8881C18.2721 23.8881 18.5276 23.4215 18.5276 22.6159C18.5276 18.9048 18.3388 18.5548 19.3832 18.5548C19.8665 18.5548 20.6999 18.7992 22.6443 20.6715C24.8665 22.8937 25.2332 23.8881 26.4776 23.8881H29.7499C30.6832 23.8881 31.1554 23.4215 30.8832 22.4992C30.261 20.5604 26.0554 16.5715 25.8665 16.3048C25.3832 15.6826 25.5221 15.4048 25.8665 14.8492C25.8721 14.8437 29.8665 9.22146 30.2776 7.31591Z" fill="#2787F5"/>
</svg>
