<svg width="32" height="32" viewBox="0 0 32 32" fill="none" xmlns="http://www.w3.org/2000/svg">
<path d="M27.6135 4.873C27.6135 4.873 30.2035 3.863 29.9869 6.31567C29.9155 7.32567 29.2682 10.861 28.7642 14.6843L27.0375 26.011C27.0375 26.011 26.8935 27.6703 25.5982 27.959C24.3035 28.247 22.3609 26.949 22.0009 26.6603C21.7129 26.4437 16.6049 23.197 14.8062 21.6103C14.3022 21.177 13.7262 20.3117 14.8782 19.3017L22.4329 12.087C23.2962 11.2203 24.1595 9.20034 20.5622 11.6537L10.4889 18.507C10.4889 18.507 9.33753 19.229 7.17953 18.5797L2.5022 17.1363C2.5022 17.1363 0.775529 16.0543 3.72553 14.9723C10.9209 11.5817 19.7709 8.119 27.6129 4.87234" fill="#25A3E1"/>
</svg>
