<svg width="170" height="30" viewBox="0 0 170 30" fill="none" xmlns="http://www.w3.org/2000/svg">
<g clip-path="url(#clip0_2449_41)">
<path d="M57.6756 -0.14224C57.7535 -0.142475 57.8314 -0.142709 57.9116 -0.142951C58.1709 -0.143633 58.4302 -0.143756 58.6895 -0.143875C58.8761 -0.144241 59.0626 -0.144638 59.2492 -0.145063C59.7547 -0.146097 60.2601 -0.146609 60.7656 -0.146961C61.0814 -0.147193 61.3972 -0.147517 61.7129 -0.14787C62.5879 -0.148825 63.4629 -0.149646 64.3379 -0.149914C64.3938 -0.149932 64.4497 -0.149949 64.5073 -0.149967C64.5633 -0.149984 64.6193 -0.150001 64.677 -0.150019C64.7905 -0.150054 64.9039 -0.150089 65.0174 -0.150125C65.0737 -0.150142 65.13 -0.15016 65.188 -0.150178C66.1015 -0.15049 67.0151 -0.151872 67.9286 -0.153709C68.8674 -0.155582 69.8062 -0.156567 70.7451 -0.15666C71.2718 -0.156743 71.7986 -0.157212 72.3254 -0.158621C72.8203 -0.159919 73.3152 -0.160095 73.8101 -0.1594C73.9919 -0.159339 74.1737 -0.159685 74.3554 -0.160463C74.6032 -0.161463 74.8509 -0.161007 75.0987 -0.16018C75.1709 -0.160817 75.2432 -0.161454 75.3176 -0.162109C75.7351 -0.158841 76.0314 -0.122306 76.3416 0.18492C76.3989 0.848547 76.2148 1.42706 76.024 2.05784C75.9909 2.16924 75.9579 2.28066 75.9249 2.39209C75.8558 2.62445 75.7861 2.85659 75.7158 3.08859C75.626 3.38509 75.5384 3.68214 75.4513 3.97941C75.3837 4.20921 75.3148 4.43864 75.2457 4.66799C75.2129 4.77737 75.1804 4.88687 75.1484 4.99649C75.1035 5.14979 75.0568 5.30255 75.0099 5.45528C74.9839 5.5421 74.9578 5.62891 74.931 5.71836C74.7997 6.01032 74.6815 6.14979 74.4265 6.34815C74.1801 6.40543 73.9398 6.40103 73.6876 6.39759C73.613 6.39814 73.5383 6.39869 73.4614 6.39925C73.211 6.40062 72.9607 6.39917 72.7103 6.39774C72.5309 6.39815 72.3514 6.39874 72.1719 6.39948C71.7853 6.40071 71.3987 6.4007 71.0121 6.39972C70.4004 6.39818 69.7888 6.39938 69.1771 6.40094C68.3191 6.40284 67.4611 6.40348 66.6031 6.40303C65.7216 6.40257 64.8402 6.40248 63.9587 6.40318C63.8774 6.40325 63.8774 6.40325 63.7944 6.40331C62.8886 6.40406 61.9828 6.40545 61.077 6.4071C60.4694 6.40813 59.8617 6.40823 59.2541 6.40757C58.8753 6.40728 58.4965 6.40762 58.1178 6.40811C57.9426 6.40819 57.7675 6.40801 57.5923 6.40753C56.0737 6.40356 54.7314 6.46574 53.568 7.55375C52.7451 8.4145 52.4701 9.26184 52.453 10.4279C52.4954 10.8171 52.6111 11.0662 52.901 11.334C53.5871 11.8036 54.6589 11.6651 55.4652 11.6636C55.5931 11.664 55.7211 11.6644 55.849 11.6649C56.1224 11.6658 56.3959 11.6662 56.6693 11.6663C57.1028 11.6664 57.5363 11.6679 57.9698 11.6695C59.0462 11.6734 60.1227 11.6758 61.1992 11.6775C62.0367 11.6788 62.8742 11.6806 63.7118 11.6841C64.1415 11.6858 64.5713 11.6864 65.0011 11.6863C65.2697 11.6864 65.5384 11.6875 65.8071 11.6889C65.9304 11.6893 66.0537 11.6894 66.177 11.689C68.2811 11.6828 70.2066 12.3395 71.7398 13.7941C73.2315 15.334 73.3612 17.1564 73.3195 19.1884C73.2998 19.7223 73.2183 20.2139 73.0699 20.729C73.0527 20.7902 73.0356 20.8515 73.0179 20.9146C72.3165 23.3616 70.8291 25.6644 68.8406 27.2873C68.7993 27.3212 68.7579 27.355 68.7153 27.3899C65.9731 29.5991 62.7046 30.1442 59.283 30.1433C59.0832 30.1436 58.8835 30.1439 58.6838 30.1442C58.1998 30.1448 57.7158 30.145 57.2318 30.1451C56.8384 30.1451 56.445 30.1453 56.0516 30.1455C54.9345 30.1462 53.8175 30.1466 52.7004 30.1465C52.6403 30.1465 52.5803 30.1465 52.5184 30.1465C52.4282 30.1465 52.4282 30.1465 52.3362 30.1465C51.3601 30.1465 50.384 30.1472 49.4079 30.1483C48.4039 30.1495 47.4 30.15 46.3961 30.15C45.8331 30.1499 45.2701 30.1501 44.7071 30.151C44.1783 30.1518 43.6495 30.1518 43.1206 30.1512C42.9265 30.1511 42.7325 30.1513 42.5384 30.1518C42.2736 30.1524 42.0088 30.152 41.744 30.1514C41.6287 30.152 41.6287 30.152 41.5112 30.1526C40.5544 30.1478 40.5544 30.1478 40.1981 29.8405C40.0081 29.4309 40.1241 28.999 40.2474 28.5839C40.2768 28.484 40.3061 28.3841 40.3363 28.2811C40.3687 28.1735 40.4012 28.0659 40.4338 27.9583C40.467 27.8467 40.5003 27.735 40.5335 27.6234C40.603 27.3901 40.6731 27.157 40.7436 26.9241C40.8336 26.6262 40.9221 26.3279 41.0102 26.0295C41.0784 25.7991 41.1475 25.569 41.2169 25.3389C41.2498 25.229 41.2825 25.1191 41.315 25.0091C41.3604 24.8551 41.4072 24.7015 41.4541 24.548C41.4934 24.417 41.4934 24.417 41.5335 24.2834C41.6568 23.9805 41.8065 23.723 42.1083 23.5736C42.2233 23.5661 42.3387 23.5636 42.454 23.5635C42.5271 23.5633 42.6001 23.563 42.6754 23.5628C42.7562 23.5629 42.837 23.563 42.9203 23.5632C43.0057 23.563 43.0911 23.5629 43.1791 23.5627C43.4674 23.5622 43.7556 23.5623 44.0438 23.5624C44.2497 23.5621 44.4556 23.5618 44.6615 23.5615C45.1059 23.5609 45.5504 23.5605 45.9949 23.5602C46.6981 23.5598 47.4013 23.5585 48.1045 23.557C48.3452 23.5565 48.5858 23.556 48.8264 23.5555C48.8866 23.5554 48.9467 23.5552 49.0087 23.5551C49.6938 23.5537 50.3789 23.5524 51.064 23.5512C51.1579 23.551 51.1579 23.551 51.2538 23.5509C52.2671 23.5492 53.2803 23.5483 54.2936 23.5477C55.3345 23.5471 56.3753 23.5452 57.4162 23.5423C58.0578 23.5406 58.6993 23.5398 59.3409 23.5403C59.8336 23.5406 60.3263 23.5392 60.819 23.5373C61.0205 23.5367 61.2219 23.5367 61.4234 23.5373C62.8869 23.541 64.177 23.4882 65.3096 22.4476C66.0015 21.7124 66.3968 20.764 66.4557 19.7654C66.4423 19.4367 66.3488 19.2082 66.2073 18.9116C66.1809 18.8334 66.1546 18.7552 66.1275 18.6746C65.9481 18.5837 65.9481 18.5837 65.7285 18.5166C65.6558 18.4894 65.5831 18.4622 65.5081 18.4342C65.2322 18.3534 65.0079 18.3383 64.7206 18.3376C64.6154 18.3369 64.5102 18.3363 64.4018 18.3356C64.2861 18.3357 64.1704 18.3358 64.0547 18.3358C63.9321 18.3354 63.8095 18.3348 63.6869 18.3342C63.4231 18.333 63.1594 18.3323 62.8957 18.332C62.4772 18.3315 62.0588 18.3298 61.6403 18.3279C60.7504 18.324 59.8605 18.3215 58.9706 18.319C58.0132 18.3164 57.0558 18.3135 56.0985 18.3092C55.7514 18.3077 55.4043 18.3065 55.0572 18.306C51.5788 18.3014 51.5788 18.3014 50.2327 17.9536C50.1673 17.9369 50.1019 17.9202 50.0345 17.9031C49.0283 17.6292 48.1469 17.1595 47.3749 16.4622C47.3264 16.4213 47.2778 16.3805 47.2278 16.3384C46.2459 15.4566 45.6374 14.0693 45.5206 12.7755C45.4085 10.4388 45.9976 8.15399 47.1356 6.1111C47.1825 6.02503 47.2294 5.93896 47.2777 5.85028C47.9897 4.58922 49.0421 3.41853 50.2178 2.56033C50.2737 2.51935 50.3297 2.47836 50.3874 2.43613C52.5054 0.902809 55.0263 -0.144775 57.6756 -0.14224Z" fill="white"/>
<path d="M150.56 -0.153248C150.693 -0.153592 150.827 -0.154002 150.961 -0.154472C151.321 -0.155522 151.681 -0.155576 152.042 -0.155375C152.344 -0.15529 152.646 -0.155678 152.949 -0.156055C153.663 -0.156929 154.377 -0.156968 155.092 -0.156489C155.825 -0.156012 156.558 -0.156983 157.291 -0.158667C157.924 -0.160067 158.557 -0.160532 159.189 -0.160276C159.566 -0.160134 159.942 -0.16033 160.319 -0.161439C160.673 -0.162445 161.028 -0.162268 161.382 -0.161248C161.511 -0.161064 161.64 -0.161268 161.769 -0.16193C164.023 -0.172658 166.213 0.36069 167.89 1.93181C169.371 3.4866 169.887 5.65977 169.877 7.74464C169.764 11.2937 168.029 15.7285 165.563 18.3405C165.414 18.4984 165.277 18.6609 165.138 18.8273C163.013 21.2399 159.385 22.6824 156.221 22.941C155.567 22.9759 154.911 22.9816 154.256 22.9904C154.069 22.9934 153.882 22.9963 153.696 22.9993C153.154 23.0076 152.613 23.0143 152.071 23.0201C152 23.0208 151.929 23.0216 151.855 23.0224C151.015 23.0308 150.175 23.0296 149.335 23.0219C149.091 23.0198 148.847 23.0184 148.603 23.017C148.135 23.0142 147.667 23.0094 147.199 23.0035C147.014 23.0014 146.828 22.9998 146.643 22.9987C146.384 22.997 146.126 22.9933 145.867 22.9892C145.75 22.989 145.75 22.989 145.63 22.9889C145.326 22.9823 145.11 22.973 144.838 22.8294C144.493 22.1778 144.833 21.3877 145.036 20.7372C145.068 20.6332 145.099 20.5292 145.131 20.4252C145.197 20.2085 145.263 19.992 145.331 19.7757C145.416 19.4995 145.501 19.223 145.585 18.9463C145.65 18.732 145.716 18.5178 145.781 18.3037C145.828 18.1525 145.874 18.0013 145.92 17.8502C145.949 17.7578 145.978 17.6655 146.007 17.5704C146.045 17.4492 146.045 17.4492 146.083 17.3256C146.2 17.0009 146.317 16.7074 146.565 16.4617C146.835 16.3904 147.087 16.3733 147.365 16.3748C147.443 16.3751 147.522 16.3753 147.603 16.3755C147.689 16.3762 147.774 16.3768 147.862 16.3775C147.953 16.3779 148.044 16.3783 148.137 16.3786C148.334 16.3795 148.532 16.3805 148.729 16.3816C149.042 16.3834 149.356 16.3845 149.669 16.3854C150.561 16.388 151.453 16.3913 152.344 16.3963C152.837 16.399 153.33 16.4009 153.822 16.4018C154.082 16.4024 154.342 16.4034 154.602 16.4054C156.772 16.4212 158.964 16.3896 160.63 14.8222C162.025 13.3752 162.886 10.7775 162.856 8.7892C162.817 8.01346 162.664 7.39108 162.065 6.85363C160.916 6.08701 158.921 6.4033 157.585 6.40553C157.265 6.40593 156.945 6.40556 156.625 6.40531C156.09 6.40502 155.554 6.4054 155.018 6.40615C154.401 6.40702 153.784 6.40673 153.166 6.40587C152.633 6.40515 152.1 6.40505 151.567 6.40546C151.25 6.40571 150.933 6.40574 150.616 6.40522C150.318 6.40476 150.02 6.40509 149.722 6.40599C149.563 6.4063 149.403 6.40583 149.243 6.40534C147.997 6.40175 147.997 6.40175 146.885 6.89288C146.148 7.65848 145.91 8.91442 145.62 9.89666C145.568 10.0683 145.517 10.24 145.465 10.4116C145.326 10.8734 145.188 11.3355 145.05 11.7977C144.905 12.2842 144.759 12.7704 144.613 13.2566C144.432 13.858 144.252 14.4595 144.071 15.0611C143.675 16.3842 143.277 17.7064 142.875 19.0279C142.849 19.114 142.823 19.2001 142.796 19.2888C142.666 19.7144 142.537 20.1399 142.408 20.5654C141.545 23.4038 141.545 23.4038 140.7 26.2473C140.683 26.3032 140.667 26.359 140.65 26.4166C140.489 26.9637 140.329 27.511 140.171 28.0589C140.123 28.2242 140.075 28.3895 140.026 28.5549C139.996 28.6626 139.996 28.6626 139.964 28.7726C139.696 29.6872 139.696 29.6872 139.463 29.9734C138.915 30.2126 138.29 30.1543 137.7 30.1525C137.591 30.1526 137.483 30.1527 137.374 30.1529C137.147 30.1531 136.92 30.1528 136.694 30.1521C136.404 30.1512 136.115 30.1517 135.825 30.1526C135.601 30.1532 135.377 30.153 135.153 30.1526C134.995 30.1525 134.837 30.1529 134.679 30.1534C133.735 30.1486 133.735 30.1486 133.319 29.9734C133.106 29.6567 133.122 29.3916 133.159 29.0252C133.225 28.7134 133.317 28.4114 133.412 28.107C133.439 28.0171 133.466 27.9273 133.494 27.8347C133.568 27.5873 133.644 27.3401 133.72 27.093C133.802 26.825 133.883 26.5566 133.964 26.2883C134.085 25.8873 134.206 25.4864 134.328 25.0857C134.553 24.3456 134.776 23.6049 134.998 22.8639C135.066 22.635 135.135 22.4061 135.203 22.1772C135.22 22.1198 135.238 22.0623 135.255 22.0031C136.003 19.5028 136.759 17.0047 137.515 14.5067C137.592 14.2544 137.668 14.002 137.744 13.7496C138.076 12.6514 138.41 11.5537 138.745 10.4566C138.781 10.3409 138.781 10.3409 138.817 10.2229C138.957 9.7647 139.098 9.30672 139.239 8.84901C139.283 8.70883 139.326 8.56859 139.369 8.4283C139.87 6.79634 140.462 5.25128 141.538 3.89825C141.597 3.82329 141.655 3.74832 141.715 3.67108C142.075 3.22136 142.442 2.83345 142.895 2.47597C142.999 2.38751 142.999 2.38751 143.106 2.29726C144.236 1.38039 145.57 0.754917 146.964 0.342549C147.016 0.327003 147.068 0.311457 147.122 0.29544C148.265 -0.0401603 149.372 -0.155292 150.56 -0.153248Z" fill="white"/>
<path d="M103.777 -0.21093C103.835 -0.210932 103.893 -0.210935 103.953 -0.210938C105.635 -0.210779 105.635 -0.210779 106.418 -0.19324C106.534 -0.190911 106.65 -0.189289 106.767 -0.188225C106.944 -0.186544 107.121 -0.182893 107.299 -0.178772C107.448 -0.176289 107.448 -0.176289 107.6 -0.173756C107.922 -0.12074 108.054 -0.066418 108.261 0.185441C108.357 0.835433 108.131 1.4399 107.944 2.05836C107.91 2.16976 107.877 2.28118 107.844 2.39261C107.775 2.62497 107.706 2.85711 107.635 3.08911C107.546 3.38561 107.458 3.68266 107.371 3.97993C107.303 4.20973 107.234 4.43916 107.165 4.66851C107.132 4.77789 107.1 4.88739 107.068 4.99701C107.023 5.15031 106.976 5.30307 106.929 5.4558C106.903 5.54262 106.877 5.62943 106.851 5.71888C106.713 6.02409 106.63 6.15959 106.346 6.34866C105.994 6.40594 105.646 6.3985 105.29 6.39352C105.181 6.3934 105.073 6.39347 104.964 6.39369C104.67 6.3938 104.376 6.39148 104.082 6.38872C103.774 6.38625 103.467 6.38602 103.159 6.38555C102.577 6.38433 101.995 6.38108 101.413 6.37712C100.75 6.3727 100.087 6.37053 99.424 6.36855C98.0606 6.36442 96.6973 6.35747 95.3339 6.34866C95.3239 6.40044 95.3139 6.45221 95.3035 6.50555C95.2311 6.87302 95.1554 7.23425 95.0449 7.5927C95.0077 7.71416 95.0077 7.71416 94.9699 7.83808C94.9431 7.9243 94.9163 8.01052 94.8888 8.09936C94.8602 8.19266 94.8316 8.28596 94.8021 8.38208C94.7399 8.585 94.6775 8.78788 94.6149 8.99069C94.46 9.493 94.3063 9.99568 94.1526 10.4983C94.1164 10.6166 94.0802 10.7349 94.044 10.8532C93.6475 12.148 93.2577 13.4448 92.8691 14.742C92.7037 15.2944 92.538 15.8468 92.3723 16.3991C92.3536 16.4616 92.3348 16.5241 92.3155 16.5885C91.7399 18.5076 91.161 20.4257 90.5814 22.3436C90.5598 22.4148 90.5383 22.4861 90.5161 22.5594C90.4947 22.6303 90.4733 22.7012 90.4512 22.7742C90.4299 22.8446 90.4086 22.9151 90.3867 22.9877C90.344 23.1288 90.3014 23.27 90.2587 23.4111C90.0019 24.2608 89.7459 25.1106 89.4912 25.9609C89.3729 26.356 89.2542 26.7511 89.1354 27.1461C89.0582 27.4029 88.9811 27.6599 88.9046 27.917C88.8223 28.1932 88.7393 28.4693 88.6561 28.7453C88.6325 28.8251 88.6089 28.9049 88.5846 28.9872C88.3543 29.7469 88.3543 29.7469 88.1521 29.9744C87.6221 30.2181 87.0144 30.1568 86.4414 30.1562C86.329 30.1565 86.2167 30.1568 86.1043 30.1572C85.8696 30.1578 85.6348 30.1577 85.4001 30.1573C85.1003 30.1569 84.8007 30.1582 84.501 30.16C84.2692 30.1612 84.0374 30.1613 83.8056 30.161C83.6951 30.1611 83.5847 30.1615 83.4742 30.1623C82.387 30.1692 82.387 30.1692 81.9278 29.8953C81.6579 29.3608 81.9245 28.6745 82.0893 28.144C82.1155 28.0569 82.1417 27.9698 82.1687 27.88C82.2416 27.6381 82.3154 27.3966 82.3895 27.1551C82.47 26.8921 82.5493 26.6287 82.6288 26.3654C82.7697 25.899 82.9113 25.4328 83.0532 24.9667C83.2961 24.1689 83.5367 23.3706 83.7772 22.5722C83.8629 22.2876 83.9487 22.0031 84.0344 21.7185C84.0667 21.6115 84.0667 21.6115 84.0996 21.5023C84.343 20.6946 84.587 19.887 84.8311 19.0794C85.1717 17.9523 85.5122 16.8251 85.8523 15.6978C85.872 15.6323 85.8918 15.5668 85.9122 15.4993C86.1242 14.7965 86.3362 14.0936 86.5481 13.3908C86.6035 13.207 86.6589 13.0233 86.7143 12.8395C86.7506 12.7191 86.7869 12.5987 86.8232 12.4783C87.0508 11.7236 87.2787 10.9689 87.5069 10.2143C87.6203 9.83934 87.7336 9.46434 87.8468 9.08933C87.9213 8.84272 87.9958 8.59613 88.0705 8.34958C88.1508 8.08432 88.231 7.819 88.311 7.55365C88.3345 7.47652 88.3579 7.39938 88.382 7.31991C88.4033 7.24915 88.4246 7.17839 88.4466 7.10549C88.465 7.0447 88.4834 6.98392 88.5023 6.9213C88.5544 6.7317 88.594 6.54168 88.6309 6.34866C88.5181 6.35225 88.5181 6.35225 88.403 6.35592C86.5504 6.41328 84.6982 6.43648 82.8448 6.43743C82.6833 6.43755 82.5218 6.43783 82.3604 6.43815C81.6575 6.43923 80.9549 6.43529 80.2521 6.42768C80.155 6.42705 80.0578 6.42643 79.9578 6.42578C79.6794 6.42338 79.4011 6.41825 79.1227 6.41225C79.0396 6.41183 78.9565 6.41142 78.8708 6.411C78.316 6.39467 78.316 6.39467 78.0434 6.18172C77.841 5.74408 77.9392 5.32683 78.072 4.87974C78.116 4.72984 78.116 4.72984 78.1609 4.57692C78.1933 4.46931 78.2258 4.36172 78.2584 4.25413C78.2916 4.1425 78.3249 4.03086 78.358 3.9192C78.4276 3.68594 78.4977 3.45285 78.5682 3.21987C78.6582 2.92202 78.7467 2.62374 78.8348 2.32532C78.903 2.09492 78.9721 1.86478 79.0415 1.6347C79.0744 1.52484 79.1071 1.4149 79.1396 1.30487C79.185 1.15091 79.2318 0.997327 79.2787 0.843763C79.3049 0.756472 79.3311 0.66918 79.3581 0.579244C79.4814 0.276267 79.6311 0.0188093 79.9329 -0.130622C80.0515 -0.138365 80.1705 -0.141197 80.2895 -0.141579C80.365 -0.142011 80.4405 -0.142444 80.5182 -0.142889C80.6018 -0.142967 80.6853 -0.143044 80.7714 -0.143124C80.8597 -0.143514 80.948 -0.143904 81.039 -0.144306C81.3371 -0.145526 81.6351 -0.146183 81.9332 -0.146846C82.1462 -0.147602 82.3592 -0.14839 82.5722 -0.149216C83.0927 -0.151164 83.6132 -0.152696 84.1337 -0.154095C84.7422 -0.15575 85.3507 -0.157841 85.9592 -0.159956C87.0483 -0.163729 88.1375 -0.167144 89.2266 -0.170342C90.2774 -0.173428 91.3283 -0.176701 92.3791 -0.180219C92.4434 -0.180434 92.5077 -0.180649 92.574 -0.180871C92.8327 -0.181738 93.0914 -0.182605 93.3501 -0.183474C94.5397 -0.187466 95.7293 -0.191323 96.9189 -0.195131C96.9786 -0.195322 97.0382 -0.195513 97.0996 -0.195709C101.872 -0.21097 101.872 -0.21097 103.777 -0.21093Z" fill="white"/>
<path d="M21.8964 6.2579C22.0149 6.25766 22.1335 6.2574 22.2521 6.2571C22.573 6.2564 22.8939 6.25621 23.2148 6.25616C23.4161 6.25611 23.6173 6.25594 23.8186 6.25573C24.5231 6.255 25.2275 6.25468 25.932 6.25474C26.5847 6.25479 27.2374 6.25396 27.8901 6.2527C28.4533 6.25166 29.0165 6.25125 29.5797 6.2513C29.9148 6.25132 30.2499 6.2511 30.585 6.25026C33.613 6.24315 36.406 6.36923 38.7284 8.52719C40.2176 10.056 40.5587 11.8794 40.5316 13.9382C40.5109 14.6798 40.3881 15.3529 40.1919 16.0673C40.1674 16.1568 40.1428 16.2462 40.1176 16.3384C39.8629 17.2527 39.5886 18.1613 39.3141 19.0699C39.2852 19.1655 39.2564 19.261 39.2267 19.3594C38.9185 20.3797 38.6098 21.3999 38.2992 22.4195C37.9476 23.5743 37.5989 24.7298 37.2598 25.8882C37.1566 26.2404 37.0528 26.5925 36.949 26.9445C36.8508 27.2781 36.7538 27.6119 36.6575 27.946C36.6123 28.1024 36.5665 28.2586 36.5203 28.4148C36.4645 28.6041 36.4095 28.7936 36.3557 28.9835C36.3308 29.067 36.3058 29.1506 36.28 29.2367C36.2591 29.309 36.2381 29.3813 36.2164 29.4558C36.0918 29.7231 35.9571 29.871 35.7232 30.0531C35.4683 30.1017 35.4683 30.1017 35.1775 30.1005C35.1243 30.1008 35.071 30.1011 35.0161 30.1014C34.841 30.1019 34.6661 30.0996 34.491 30.0972C34.3689 30.0969 34.2468 30.0967 34.1246 30.0967C33.8691 30.0962 33.6137 30.0944 33.3582 30.0916C33.0309 30.088 32.7037 30.0868 32.3764 30.0865C32.1244 30.0862 31.8724 30.085 31.6204 30.0835C31.4997 30.0828 31.379 30.0822 31.2584 30.0819C31.0897 30.0812 30.9211 30.0794 30.7525 30.0773C30.6565 30.0765 30.5606 30.0756 30.4618 30.0748C30.0858 30.0415 30.0858 30.0415 29.8979 29.8951C29.7972 29.611 29.8204 29.4088 29.9041 29.1241C29.9254 29.0502 29.9466 28.9764 29.9685 28.9003C29.9928 28.8197 30.017 28.7391 30.0419 28.6561C30.0671 28.5698 30.0923 28.4835 30.1183 28.3945C30.2034 28.1042 30.29 27.8144 30.3767 27.5246C30.407 27.4227 30.4373 27.3208 30.4675 27.2189C30.686 26.4832 30.9072 25.7482 31.1288 25.0134C31.224 24.6976 31.319 24.3818 31.414 24.0659C31.4333 24.0017 31.4526 23.9375 31.4725 23.8714C31.5118 23.7405 31.5512 23.6096 31.5906 23.4787C31.6502 23.2803 31.7099 23.0819 31.7696 22.8835C32.1685 21.5575 32.5664 20.2312 32.9633 18.9046C33.0374 18.6567 33.1117 18.4088 33.186 18.161C33.2732 17.8704 33.3602 17.5798 33.447 17.2892C33.4788 17.1828 33.5107 17.0764 33.5427 16.9701C33.5863 16.8249 33.6296 16.6796 33.673 16.5344C33.6973 16.4532 33.7216 16.3721 33.7466 16.2885C33.9632 15.5083 34.032 14.6188 33.6743 13.8719C33.2799 13.2186 32.8265 12.8851 32.0995 12.667C31.6676 12.5621 31.2415 12.5685 30.799 12.5702C30.7073 12.5699 30.6156 12.5696 30.5211 12.5693C30.2197 12.5687 29.9182 12.5691 29.6168 12.5696C29.4069 12.5695 29.1971 12.5694 28.9873 12.5692C28.5485 12.5689 28.1097 12.5693 27.6709 12.57C27.1633 12.5709 26.6558 12.5706 26.1483 12.5697C25.6596 12.5689 25.1708 12.569 24.682 12.5695C24.4741 12.5696 24.2662 12.5695 24.0583 12.5691C23.7687 12.5687 23.4791 12.5693 23.1895 12.5702C23.0598 12.5697 23.0598 12.5697 22.9274 12.5692C22.8489 12.5697 22.7704 12.5701 22.6895 12.5706C22.621 12.5706 22.5525 12.5707 22.482 12.5707C22.2993 12.5758 22.2993 12.5758 22.1575 12.7487C22.1006 12.9089 22.0503 13.0714 22.0033 13.2347C21.9887 13.2848 21.9741 13.3349 21.9591 13.3866C21.9104 13.5542 21.8625 13.722 21.8146 13.8898C21.7803 14.0084 21.746 14.1271 21.7116 14.2457C21.6384 14.4989 21.5655 14.7521 21.4929 15.0054C21.3797 15.4003 21.2656 15.7949 21.1515 16.1896C20.8359 17.2818 20.522 18.3746 20.2101 19.4679C20.1067 19.8302 20.003 20.1925 19.8993 20.5547C19.8294 20.7998 19.7601 21.0451 19.6909 21.2904C19.6491 21.4366 19.6074 21.5828 19.5656 21.729C19.5473 21.7946 19.529 21.8601 19.5102 21.9277C19.3827 22.3706 19.3827 22.3706 19.205 22.5466C18.8301 22.5713 18.5099 22.5289 18.1485 22.4331C18.0537 22.4083 17.959 22.3835 17.8613 22.3579C17.7605 22.3308 17.6596 22.3036 17.5557 22.2756C17.4499 22.2476 17.3442 22.2196 17.2384 22.1917C17.0175 22.1333 16.7968 22.0744 16.5762 22.0151C16.2938 21.9393 16.0113 21.8644 15.7286 21.7899C15.5105 21.7322 15.2924 21.6743 15.0745 21.6162C14.9198 21.575 14.7651 21.534 14.6103 21.493C14.5163 21.4677 14.4223 21.4424 14.3254 21.4164C14.2427 21.3942 14.1601 21.3721 14.0749 21.3494C13.6894 21.23 13.6894 21.23 13.5393 21.1243C13.411 20.7938 13.4904 20.5422 13.5888 20.2109C13.6111 20.1346 13.6111 20.1346 13.6338 20.0568C13.6834 19.8873 13.7343 19.7183 13.7853 19.5493C13.8209 19.4285 13.8565 19.3078 13.892 19.187C13.9879 18.8614 14.0849 18.5361 14.1821 18.2108C14.2831 17.8722 14.3831 17.5333 14.4832 17.1945C14.6263 16.71 14.7698 16.2257 14.9136 15.7414C15.1573 14.9208 15.3983 14.0995 15.6378 13.2777C15.6707 13.1647 15.7036 13.0518 15.7366 12.9388C15.8603 12.5145 15.9841 12.0902 16.1075 11.6657C17.0097 8.56749 17.0097 8.56749 17.5292 7.92871C17.5759 7.86882 17.6226 7.80893 17.6707 7.74722C18.4034 6.86483 19.3789 6.42048 20.516 6.28571C20.975 6.24917 21.4361 6.25772 21.8964 6.2579Z" fill="white"/>
<path d="M103.746 23.641C103.893 23.6406 103.893 23.6406 104.043 23.6403C104.313 23.6397 104.584 23.6395 104.854 23.6394C105.146 23.6393 105.439 23.6387 105.731 23.6381C106.369 23.6371 107.007 23.6366 107.645 23.6362C108.043 23.636 108.442 23.6357 108.84 23.6353C109.944 23.6344 111.048 23.6336 112.152 23.6333C112.222 23.6333 112.293 23.6333 112.366 23.6332C112.436 23.6332 112.507 23.6332 112.58 23.6332C112.723 23.6331 112.866 23.6331 113.01 23.6331C113.081 23.6331 113.152 23.633 113.225 23.633C114.378 23.6327 115.531 23.6313 116.684 23.6295C117.868 23.6276 119.053 23.6266 120.237 23.6265C120.902 23.6265 121.566 23.626 122.231 23.6246C122.797 23.6234 123.362 23.623 123.928 23.6236C124.216 23.6239 124.505 23.6238 124.794 23.6227C125.106 23.6216 125.419 23.6222 125.732 23.623C125.869 23.6221 125.869 23.6221 126.008 23.6211C126.907 23.6267 126.907 23.6267 127.252 23.9681C127.31 24.6324 127.124 25.2101 126.931 25.841C126.898 25.9524 126.865 26.0639 126.832 26.1753C126.762 26.4077 126.692 26.6398 126.622 26.8718C126.531 27.1684 126.443 27.4654 126.355 27.7626C126.287 27.9923 126.218 28.2218 126.148 28.4512C126.115 28.5606 126.083 28.6701 126.05 28.7797C126.005 28.9329 125.958 29.0857 125.911 29.2385C125.885 29.3253 125.859 29.4121 125.832 29.5016C125.727 29.7579 125.608 29.9308 125.416 30.1313C125.163 30.215 124.985 30.2202 124.719 30.2201C124.623 30.2202 124.527 30.2204 124.428 30.2206C124.321 30.2203 124.213 30.2201 124.106 30.2199C123.993 30.2199 123.879 30.22 123.766 30.2201C123.453 30.2202 123.141 30.2199 122.829 30.2195C122.492 30.2192 122.155 30.2193 121.819 30.2194C121.235 30.2194 120.652 30.2192 120.068 30.2187C119.224 30.2181 118.381 30.2179 117.537 30.2178C116.168 30.2176 114.8 30.2171 113.431 30.2163C112.101 30.2156 110.771 30.215 109.442 30.2147C109.36 30.2147 109.278 30.2147 109.193 30.2146C108.782 30.2145 108.371 30.2144 107.96 30.2143C104.549 30.2135 101.138 30.2121 97.7266 30.2104C97.8117 29.5143 97.8117 29.5143 97.8957 29.2386C97.9133 29.1801 97.931 29.1215 97.9491 29.0611C97.9682 28.9999 97.9872 28.9388 98.0068 28.8757C98.0268 28.8105 98.0468 28.7452 98.0674 28.678C98.1097 28.5406 98.1523 28.4033 98.1952 28.266C98.2596 28.0591 98.3225 27.8519 98.3854 27.6445C98.8056 26.2776 99.3427 25.001 100.633 24.2243C101.653 23.7377 102.63 23.6401 103.746 23.641Z" fill="white"/>
<path d="M108.64 11.7001C108.741 11.6997 108.843 11.6994 108.947 11.699C109.228 11.698 109.509 11.6981 109.79 11.6982C110.093 11.6983 110.396 11.6974 110.699 11.6967C111.293 11.6953 111.886 11.6949 112.48 11.6948C112.962 11.6947 113.444 11.6944 113.927 11.6939C115.294 11.6925 116.662 11.6918 118.029 11.6919C118.14 11.6919 118.14 11.6919 118.253 11.6919C118.363 11.6919 118.363 11.6919 118.476 11.692C119.673 11.692 120.869 11.6905 122.066 11.6883C123.295 11.686 124.523 11.6849 125.752 11.6851C126.442 11.6851 127.132 11.6847 127.822 11.683C128.409 11.6815 128.996 11.6812 129.583 11.6823C129.882 11.6828 130.182 11.6828 130.481 11.6814C130.806 11.68 131.13 11.6809 131.455 11.6822C131.55 11.6813 131.645 11.6805 131.742 11.6797C132.375 11.685 132.375 11.685 132.7 11.8651C132.839 12.0373 132.839 12.0373 132.872 12.303C132.841 12.5757 132.792 12.8174 132.713 13.0802C132.685 13.1745 132.657 13.2687 132.629 13.3658C132.598 13.4679 132.566 13.5699 132.535 13.6719C132.503 13.7784 132.471 13.8849 132.439 13.9915C132.37 14.2195 132.301 14.4473 132.232 14.6751C132.136 14.9911 132.042 15.3079 131.95 15.6249C131.874 15.8853 131.796 16.1453 131.719 16.4052C131.681 16.5315 131.644 16.658 131.608 16.7846C131.556 16.9626 131.503 17.14 131.449 17.3174C131.434 17.3703 131.419 17.4231 131.404 17.4775C131.293 17.8361 131.159 17.9965 130.844 18.2005C130.618 18.2398 130.618 18.2398 130.364 18.2394C130.267 18.24 130.17 18.2407 130.07 18.2413C129.963 18.2404 129.856 18.2395 129.748 18.2385C129.634 18.2387 129.52 18.2389 129.406 18.2393C129.092 18.24 128.778 18.2388 128.464 18.2372C128.125 18.2358 127.787 18.2363 127.448 18.2365C126.862 18.2367 126.275 18.2357 125.689 18.2339C124.841 18.2314 123.993 18.2305 123.145 18.2301C121.769 18.2294 120.394 18.2273 119.018 18.2244C117.682 18.2215 116.345 18.2192 115.009 18.2179C114.885 18.2177 114.885 18.2177 114.759 18.2176C114.346 18.2172 113.933 18.2168 113.52 18.2164C110.091 18.2131 106.663 18.2076 103.234 18.2005C103.272 18.0487 103.311 17.897 103.349 17.7452C103.37 17.6607 103.391 17.5762 103.413 17.4891C104.441 13.4801 104.441 13.4801 106.027 12.3533C106.9 11.8409 107.639 11.6975 108.64 11.7001Z" fill="white"/>
<path d="M115.235 -0.14224C115.335 -0.142475 115.434 -0.142709 115.537 -0.142951C115.813 -0.143586 116.088 -0.14373 116.363 -0.143789C116.661 -0.143935 116.958 -0.144532 117.256 -0.145063C117.906 -0.146135 118.555 -0.146612 119.205 -0.146961C119.611 -0.147179 120.016 -0.147514 120.422 -0.14787C121.545 -0.148833 122.669 -0.149647 123.792 -0.149914C123.9 -0.14994 123.9 -0.14994 124.01 -0.149967C124.118 -0.149993 124.118 -0.149993 124.228 -0.150019C124.374 -0.150054 124.52 -0.150089 124.666 -0.150125C124.738 -0.150142 124.81 -0.15016 124.885 -0.150178C126.059 -0.15049 127.233 -0.151871 128.407 -0.153709C129.612 -0.155581 130.817 -0.156567 132.023 -0.15666C132.699 -0.156732 133.376 -0.157188 134.053 -0.158621C134.629 -0.159836 135.205 -0.160243 135.78 -0.15959C136.074 -0.15928 136.368 -0.159357 136.662 -0.160463C136.98 -0.161651 137.299 -0.161008 137.617 -0.16018C137.757 -0.161135 137.757 -0.161135 137.899 -0.162109C138.027 -0.161328 138.027 -0.161328 138.158 -0.160531C138.231 -0.160579 138.305 -0.160626 138.38 -0.160674C138.653 -0.121412 138.868 -0.00901614 139.064 0.18492C139.122 0.845642 138.936 1.41445 138.741 2.04055C138.707 2.15018 138.674 2.25982 138.641 2.36949C138.571 2.59813 138.5 2.82655 138.429 3.05483C138.339 3.34668 138.249 3.63891 138.161 3.9313C138.092 4.1573 138.022 4.38312 137.953 4.6089C137.92 4.71659 137.887 4.82433 137.854 4.93211C137.808 5.08275 137.761 5.23314 137.714 5.38352C137.688 5.46893 137.661 5.55434 137.634 5.64234C137.422 6.21317 137.422 6.21317 137.149 6.34814C136.998 6.35563 136.848 6.35792 136.697 6.35787C136.6 6.35802 136.503 6.35818 136.404 6.35834C136.295 6.35812 136.187 6.35789 136.078 6.35765C135.964 6.35768 135.85 6.35775 135.735 6.35785C135.42 6.35803 135.105 6.35771 134.789 6.35732C134.45 6.35698 134.11 6.35709 133.77 6.35715C133.182 6.35719 132.593 6.35694 132.004 6.3565C131.153 6.35586 130.301 6.35565 129.45 6.35555C128.069 6.35538 126.688 6.35485 125.306 6.35411C123.965 6.35338 122.623 6.35282 121.281 6.35248C121.157 6.35245 121.157 6.35245 121.03 6.35242C120.615 6.35232 120.201 6.35222 119.786 6.35212C116.344 6.3513 112.901 6.34991 109.459 6.34814C109.556 6.01418 109.654 5.68026 109.752 5.34637C109.785 5.23315 109.818 5.11991 109.851 5.00666C110.919 1.34366 110.919 1.34366 112.414 0.464253C113.366 -0.0234583 114.182 -0.143017 115.235 -0.14224Z" fill="white"/>
<path d="M9.87043 -0.170237C9.95245 -0.170878 9.95245 -0.170878 10.0361 -0.171531C10.216 -0.172515 10.3958 -0.171216 10.5757 -0.169793C10.7012 -0.169806 10.8267 -0.169923 10.9522 -0.170142C11.2149 -0.170251 11.4775 -0.169261 11.7402 -0.167459C12.0764 -0.165216 12.4126 -0.165433 12.7488 -0.166439C13.0079 -0.16699 13.2669 -0.166373 13.5259 -0.165392C13.6499 -0.165036 13.7738 -0.165008 13.8978 -0.165318C14.0712 -0.165549 14.2446 -0.164241 14.418 -0.162521C14.5658 -0.16188 14.5658 -0.16188 14.7167 -0.161227C15.0004 -0.127843 15.1521 -0.0672653 15.376 0.106453C15.5385 0.599767 15.3816 1.02485 15.2358 1.5025C15.2106 1.58789 15.1855 1.67329 15.1596 1.76127C15.0887 2.0013 15.0166 2.24098 14.944 2.48053C14.8964 2.63763 14.8492 2.79483 14.8021 2.95206C14.5671 3.73655 14.3291 4.52011 14.0905 5.30353C13.9205 5.8622 13.751 6.42103 13.5814 6.97984C13.5373 7.12513 13.4932 7.27042 13.4491 7.41571C13.0132 8.8516 12.5802 10.2883 12.1485 11.7254C12.0231 12.143 11.8975 12.5606 11.7718 12.9781C11.375 14.2958 10.98 15.614 10.5927 16.9344C10.488 17.2911 10.3827 17.6476 10.2774 18.0041C10.1802 18.3334 10.0841 18.663 9.9888 18.9928C9.91728 19.2393 9.84425 19.4853 9.77146 19.7314C9.7467 19.8184 9.72193 19.9055 9.69642 19.9952C9.55784 20.4581 9.42823 20.7887 9.07198 21.1246C8.805 21.2127 8.60233 21.2147 8.32096 21.2164C8.26941 21.2168 8.21787 21.2172 8.16477 21.2176C7.99441 21.2187 7.82406 21.2193 7.6537 21.2197C7.53513 21.2201 7.41656 21.2206 7.29799 21.2211C7.04939 21.2219 6.80079 21.2223 6.55219 21.2226C6.23404 21.2231 5.91591 21.225 5.59777 21.2272C5.35282 21.2287 5.10789 21.2291 4.86294 21.2292C4.74567 21.2295 4.6284 21.2301 4.51113 21.2311C4.34687 21.2325 4.18267 21.2323 4.01841 21.2318C3.92504 21.2321 3.83167 21.2324 3.73546 21.2327C3.45667 21.2002 3.31 21.133 3.08713 20.9666C2.87199 20.647 2.88534 20.3878 2.92754 20.0184C3.01456 19.6344 3.13026 19.2597 3.24704 18.8838C3.28141 18.7706 3.31569 18.6573 3.34988 18.5441C3.42357 18.3007 3.49788 18.0575 3.57267 17.8144C3.69293 17.4236 3.81182 17.0323 3.93053 16.6411C4.09739 16.0914 4.26484 15.542 4.43263 14.9927C4.66946 14.2171 4.90425 13.4409 5.13819 12.6644C5.15665 12.6031 5.17511 12.5419 5.19413 12.4787C5.26874 12.2311 5.34333 11.9835 5.41791 11.7359C5.54887 11.301 5.68004 10.8662 5.81131 10.4314C6.22979 9.04542 6.64726 7.6591 7.06363 6.27245C7.10948 6.11977 7.15534 5.96708 7.20119 5.8144C7.40073 5.14995 7.60021 4.48548 7.79949 3.82095C7.88121 3.54847 7.96301 3.27601 8.04483 3.00356C8.08245 2.8782 8.12005 2.75283 8.15761 2.62745C8.24256 2.34388 8.32793 2.06046 8.41445 1.77736C8.48359 1.55074 8.54935 1.32343 8.61355 1.0954C8.64689 0.98101 8.68025 0.86663 8.71363 0.752256C8.73479 0.67363 8.73479 0.67363 8.75638 0.593416C8.93673 -0.0119308 9.25717 -0.170155 9.87043 -0.170237Z" fill="white"/>
<path d="M12.5838 24.5994C13.1132 24.5767 13.5751 24.6606 14.089 24.7819C14.1727 24.801 14.2564 24.8201 14.3427 24.8398C14.616 24.9023 14.8891 24.9657 15.1623 25.0291C15.545 25.117 15.9279 25.2043 16.3109 25.2914C16.4071 25.3134 16.5033 25.3353 16.6024 25.3578C17.4357 25.5465 18.2722 25.7172 19.1102 25.8845C23.3656 26.7373 23.3656 26.7373 24.383 28.0277C24.4211 28.0877 24.4593 28.1477 24.4986 28.2095C24.5378 28.2701 24.577 28.3307 24.6174 28.3931C24.7922 28.6801 24.8128 28.8745 24.8228 29.212C24.8267 29.3022 24.8306 29.3925 24.8346 29.4854C24.7929 29.7355 24.7929 29.7355 24.6249 29.9067C24.3425 30.0837 24.1798 30.0907 23.8471 30.0901C23.7661 30.0905 23.7661 30.0905 23.6835 30.091C23.5031 30.0918 23.3228 30.0902 23.1425 30.0887C23.0129 30.0887 22.8834 30.0889 22.7539 30.0892C22.4026 30.0896 22.0513 30.0881 21.7 30.0862C21.3325 30.0845 20.965 30.0845 20.5976 30.0844C19.9808 30.0839 19.364 30.0822 18.7471 30.0797C17.9547 30.0765 17.1623 30.0751 16.3698 30.0744C15.6891 30.0737 15.0085 30.0724 14.3278 30.0708C14.1086 30.0703 13.8895 30.0699 13.6703 30.0695C13.3265 30.0688 12.9827 30.0677 12.6389 30.0662C12.5125 30.0658 12.3861 30.0654 12.2596 30.0652C12.0876 30.0649 11.9156 30.0641 11.7436 30.0631C11.6471 30.0628 11.5507 30.0625 11.4514 30.0621C11.2272 30.0515 11.2272 30.0515 11.0676 29.9725C11.0252 29.4313 11.1809 28.9661 11.3385 28.4515C11.3802 28.3125 11.3802 28.3125 11.4227 28.1708C11.4814 27.9755 11.5405 27.7802 11.6 27.5851C11.6907 27.2872 11.7802 26.9891 11.8695 26.6909C11.9268 26.5007 11.9842 26.3106 12.0417 26.1205C12.0684 26.0317 12.0951 25.943 12.1226 25.8516C12.2541 25.4214 12.3934 25.0077 12.5838 24.5994Z" fill="white"/>
<path d="M2.31816 24.5686C2.37774 24.5681 2.43732 24.5675 2.49871 24.567C2.69576 24.5655 2.89275 24.5658 3.0898 24.5663C3.22665 24.5659 3.36349 24.5655 3.50034 24.565C3.78718 24.5643 4.074 24.5645 4.36084 24.5653C4.72876 24.5662 5.09661 24.5646 5.46452 24.5623C5.74711 24.5609 6.02969 24.5609 6.31228 24.5613C6.44794 24.5613 6.58361 24.5609 6.71927 24.5599C6.90881 24.5587 7.09823 24.5596 7.28777 24.5609C7.34399 24.5601 7.40021 24.5594 7.45813 24.5586C7.70821 24.5624 7.84331 24.5729 8.03461 24.7388C8.1315 24.9542 8.12286 25.045 8.06639 25.2722C8.04955 25.3419 8.03271 25.4115 8.01536 25.4833C7.99544 25.5571 7.97551 25.6308 7.95499 25.7068C7.93536 25.7806 7.91574 25.8544 7.89551 25.9304C7.82901 26.1725 7.75941 26.4134 7.68879 26.6543C7.6632 26.7419 7.63762 26.8295 7.61126 26.9197C7.55739 27.1035 7.50333 27.2871 7.44908 27.4707C7.36632 27.7519 7.28504 28.0334 7.20376 28.3149C7.15107 28.494 7.09829 28.673 7.04542 28.852C7.00936 28.978 7.00936 28.978 6.97258 29.1066C6.94916 29.1847 6.92573 29.2628 6.9016 29.3433C6.88153 29.4118 6.86145 29.4803 6.84077 29.5509C6.73704 29.7836 6.6468 29.9013 6.43883 30.0526C6.17538 30.0928 6.17538 30.0928 5.85826 30.0935C5.80036 30.0941 5.74245 30.0946 5.68279 30.0952C5.49172 30.0966 5.30075 30.0957 5.10969 30.0946C4.97673 30.0948 4.84377 30.0951 4.71081 30.0955C4.43228 30.096 4.15379 30.0953 3.87528 30.0938C3.51837 30.092 3.16154 30.0931 2.80463 30.095C2.53012 30.0961 2.25562 30.0957 1.9811 30.0949C1.84951 30.0947 1.71792 30.095 1.58634 30.0957C1.40236 30.0965 1.2185 30.0953 1.03454 30.0935C0.929887 30.0933 0.825238 30.093 0.717418 30.0928C0.453974 30.0526 0.453974 30.0526 0.257934 29.9092C0.134782 29.7366 0.134782 29.7366 0.137314 29.4624C0.222154 29.0063 0.360183 28.5618 0.493249 28.1177C0.520908 28.0244 0.548566 27.9312 0.577063 27.8351C0.635433 27.6389 0.694065 27.4428 0.752944 27.2468C0.843021 26.9462 0.931726 26.6453 1.02035 26.3443C1.07731 26.1535 1.13435 25.9627 1.19148 25.7719C1.21792 25.6818 1.24437 25.5916 1.27161 25.4988C1.29689 25.4154 1.32218 25.3321 1.34823 25.2462C1.37014 25.1728 1.39205 25.0994 1.41463 25.0238C1.60164 24.5699 1.85566 24.5657 2.31816 24.5686Z" fill="white"/>
</g>
<defs>
<clipPath id="clip0_2449_41">
<rect width="170" height="30" fill="white"/>
</clipPath>
</defs>
</svg>
