<svg width="60" height="60" viewBox="0 0 60 60" fill="none" xmlns="http://www.w3.org/2000/svg">
<rect x="1" y="1" width="58" height="58" stroke="#FF8819" stroke-width="2"/>
<path d="M39.22 30.5201L25.9713 39.3526C25.8771 39.4153 25.7678 39.4512 25.6549 39.4566C25.5419 39.462 25.4297 39.4367 25.33 39.3833C25.2303 39.33 25.147 39.2506 25.0889 39.1536C25.0308 39.0566 25.0001 38.9457 25 38.8326V21.1676C25.0001 21.0546 25.0308 20.9437 25.0889 20.8467C25.147 20.7497 25.2303 20.6703 25.33 20.617C25.4297 20.5636 25.5419 20.5383 25.6549 20.5437C25.7678 20.5491 25.8771 20.585 25.9713 20.6476L39.22 29.4801C39.3056 29.5372 39.3758 29.6145 39.4243 29.7053C39.4729 29.796 39.4983 29.8973 39.4983 30.0001C39.4983 30.103 39.4729 30.2043 39.4243 30.295C39.3758 30.3857 39.3056 30.4631 39.22 30.5201Z" fill="#FF8819"/>
</svg>
