<svg width="170" height="30" viewBox="0 0 170 30" fill="none" xmlns="http://www.w3.org/2000/svg">
<g clip-path="url(#clip0_2449_2)">
<path d="M57.6756 -0.142575C57.7535 -0.14281 57.8314 -0.143045 57.9116 -0.143287C58.1709 -0.143969 58.4302 -0.144092 58.6895 -0.14421C58.8761 -0.144576 59.0626 -0.144973 59.2492 -0.145399C59.7547 -0.146433 60.2601 -0.146945 60.7656 -0.147296C61.0814 -0.147528 61.3972 -0.147853 61.7129 -0.148205C62.5879 -0.149161 63.4629 -0.149982 64.3379 -0.15025C64.3938 -0.150267 64.4497 -0.150285 64.5073 -0.150303C64.5633 -0.15032 64.6193 -0.150337 64.677 -0.150355C64.7905 -0.15039 64.9039 -0.150425 65.0174 -0.150461C65.0737 -0.150478 65.13 -0.150496 65.188 -0.150514C66.1015 -0.150826 67.0151 -0.152207 67.9286 -0.154045C68.8674 -0.155918 69.8062 -0.156903 70.7451 -0.156995C71.2718 -0.157078 71.7986 -0.157547 72.3254 -0.158956C72.8203 -0.160255 73.3152 -0.160431 73.8101 -0.159736C73.9919 -0.159675 74.1737 -0.16002 74.3554 -0.160799C74.6032 -0.161798 74.8509 -0.161343 75.0987 -0.160516C75.1709 -0.161153 75.2432 -0.161789 75.3176 -0.162445C75.7351 -0.159177 76.0314 -0.122642 76.3416 0.184584C76.3989 0.848211 76.2148 1.42672 76.024 2.0575C75.9909 2.16891 75.9579 2.28032 75.9249 2.39175C75.8558 2.62412 75.7861 2.85625 75.7158 3.08826C75.626 3.38475 75.5384 3.68181 75.4513 3.97907C75.3837 4.20887 75.3148 4.43831 75.2457 4.66765C75.2129 4.77704 75.1804 4.88654 75.1484 4.99616C75.1035 5.14945 75.0568 5.30221 75.0099 5.45495C74.9839 5.54176 74.9578 5.62858 74.931 5.71802C74.7997 6.00998 74.6815 6.14945 74.4265 6.34781C74.1801 6.40509 73.9398 6.4007 73.6876 6.39725C73.613 6.3978 73.5383 6.39835 73.4614 6.39892C73.211 6.40028 72.9607 6.39883 72.7103 6.39741C72.5309 6.39781 72.3514 6.3984 72.1719 6.39915C71.7853 6.40038 71.3987 6.40036 71.0121 6.39938C70.4004 6.39784 69.7888 6.39904 69.1771 6.4006C68.3191 6.40251 67.4611 6.40315 66.6031 6.40269C65.7216 6.40223 64.8402 6.40214 63.9587 6.40285C63.8774 6.40291 63.8774 6.40291 63.7944 6.40298C62.8886 6.40372 61.9828 6.40511 61.077 6.40677C60.4694 6.4078 59.8617 6.4079 59.2541 6.40723C58.8753 6.40694 58.4965 6.40728 58.1178 6.40777C57.9426 6.40786 57.7675 6.40767 57.5923 6.40719C56.0737 6.40322 54.7314 6.4654 53.568 7.55342C52.7451 8.41417 52.4701 9.2615 52.453 10.4276C52.4954 10.8168 52.6111 11.0659 52.901 11.3336C53.5871 11.8033 54.6589 11.6648 55.4652 11.6633C55.5931 11.6636 55.7211 11.6641 55.849 11.6645C56.1224 11.6654 56.3959 11.6659 56.6693 11.666C57.1028 11.6661 57.5363 11.6675 57.9698 11.6692C59.0462 11.673 60.1227 11.6755 61.1992 11.6772C62.0367 11.6785 62.8742 11.6803 63.7118 11.6837C64.1415 11.6854 64.5713 11.6861 65.0011 11.6859C65.2697 11.6861 65.5384 11.6872 65.8071 11.6885C65.9304 11.689 66.0537 11.689 66.177 11.6886C68.2811 11.6825 70.2066 12.3391 71.7398 13.7938C73.2315 15.3337 73.3612 17.156 73.3195 19.1881C73.2998 19.7219 73.2183 20.2136 73.0699 20.7287C73.0527 20.7899 73.0356 20.8511 73.0179 20.9142C72.3165 23.3612 70.8291 25.6641 68.8406 27.287C68.7993 27.3208 68.7579 27.3547 68.7153 27.3896C65.9731 29.5987 62.7046 30.1438 59.283 30.143C59.0832 30.1432 58.8835 30.1435 58.6838 30.1438C58.1998 30.1444 57.7158 30.1447 57.2318 30.1447C56.8384 30.1448 56.445 30.1449 56.0516 30.1452C54.9345 30.1459 53.8175 30.1462 52.7004 30.1462C52.6403 30.1462 52.5803 30.1462 52.5184 30.1462C52.4282 30.1462 52.4282 30.1462 52.3362 30.1462C51.3601 30.1461 50.384 30.1469 49.4079 30.148C48.4039 30.1491 47.4 30.1497 46.3961 30.1496C45.8331 30.1496 45.2701 30.1498 44.7071 30.1507C44.1783 30.1515 43.6495 30.1514 43.1206 30.1509C42.9265 30.1508 42.7325 30.151 42.5384 30.1514C42.2736 30.152 42.0088 30.1517 41.744 30.1511C41.6287 30.1517 41.6287 30.1517 41.5112 30.1523C40.5544 30.1474 40.5544 30.1474 40.1981 29.8402C40.0081 29.4306 40.1241 28.9987 40.2474 28.5836C40.2768 28.4837 40.3061 28.3837 40.3363 28.2808C40.3687 28.1732 40.4012 28.0656 40.4338 27.958C40.467 27.8464 40.5003 27.7347 40.5335 27.6231C40.603 27.3898 40.6731 27.1567 40.7436 26.9237C40.8336 26.6259 40.9221 26.3276 41.0102 26.0292C41.0784 25.7988 41.1475 25.5686 41.2169 25.3386C41.2498 25.2287 41.2825 25.1188 41.315 25.0087C41.3604 24.8548 41.4072 24.7012 41.4541 24.5476C41.4934 24.4167 41.4934 24.4167 41.5335 24.2831C41.6568 23.9801 41.8065 23.7227 42.1083 23.5732C42.2233 23.5658 42.3387 23.5632 42.454 23.5632C42.5271 23.5629 42.6001 23.5627 42.6754 23.5624C42.7562 23.5626 42.837 23.5627 42.9203 23.5629C43.0057 23.5627 43.0911 23.5625 43.1791 23.5623C43.4674 23.5619 43.7556 23.562 44.0438 23.562C44.2497 23.5618 44.4556 23.5615 44.6615 23.5612C45.1059 23.5605 45.5504 23.5602 45.9949 23.5599C46.6981 23.5595 47.4013 23.5581 48.1045 23.5566C48.3452 23.5561 48.5858 23.5556 48.8264 23.5551C48.8866 23.555 48.9467 23.5549 49.0087 23.5548C49.6938 23.5533 50.3789 23.5521 51.064 23.5509C51.1579 23.5507 51.1579 23.5507 51.2538 23.5505C52.2671 23.5488 53.2803 23.548 54.2936 23.5474C55.3345 23.5467 56.3753 23.5449 57.4162 23.542C58.0578 23.5403 58.6993 23.5395 59.3409 23.54C59.8336 23.5403 60.3263 23.5389 60.819 23.5369C61.0205 23.5364 61.2219 23.5364 61.4234 23.5369C62.8869 23.5407 64.177 23.4879 65.3096 22.4473C66.0015 21.7121 66.3968 20.7636 66.4557 19.765C66.4423 19.4364 66.3488 19.2078 66.2073 18.9113C66.1809 18.8331 66.1546 18.7549 66.1275 18.6743C65.9481 18.5834 65.9481 18.5834 65.7285 18.5162C65.6558 18.4891 65.5831 18.4619 65.5081 18.4339C65.2322 18.3531 65.0079 18.338 64.7206 18.3373C64.6154 18.3366 64.5102 18.3359 64.4018 18.3353C64.2861 18.3353 64.1704 18.3354 64.0547 18.3355C63.9321 18.335 63.8095 18.3345 63.6869 18.3339C63.4231 18.3327 63.1594 18.332 62.8957 18.3317C62.4772 18.3312 62.0588 18.3294 61.6403 18.3275C60.7504 18.3237 59.8605 18.3211 58.9706 18.3187C58.0132 18.3161 57.0558 18.3132 56.0985 18.3089C55.7514 18.3073 55.4043 18.3061 55.0572 18.3057C51.5788 18.3011 51.5788 18.3011 50.2327 17.9532C50.1673 17.9366 50.1019 17.9199 50.0345 17.9027C49.0283 17.6289 48.1469 17.1592 47.3749 16.4618C47.3264 16.421 47.2778 16.3801 47.2278 16.338C46.2459 15.4563 45.6374 14.069 45.5206 12.7751C45.4085 10.4385 45.9976 8.15365 47.1356 6.11076C47.1825 6.02469 47.2294 5.93862 47.2777 5.84995C47.9897 4.58889 49.0421 3.4182 50.2178 2.55999C50.2737 2.51901 50.3297 2.47802 50.3874 2.4358C52.5054 0.902473 55.0263 -0.145111 57.6756 -0.142575Z" fill="#FE8718"/>
<path d="M150.56 -0.153187C150.693 -0.153531 150.827 -0.153941 150.961 -0.154411C151.321 -0.155461 151.681 -0.155515 152.042 -0.155314C152.344 -0.155229 152.646 -0.155617 152.949 -0.155994C153.663 -0.156868 154.377 -0.156907 155.092 -0.156428C155.825 -0.155951 156.558 -0.156922 157.291 -0.158606C157.924 -0.160006 158.557 -0.160471 159.189 -0.160215C159.566 -0.160073 159.942 -0.160269 160.319 -0.161378C160.673 -0.162384 161.028 -0.162207 161.382 -0.161187C161.511 -0.161003 161.64 -0.161207 161.769 -0.161869C164.023 -0.172597 166.213 0.360751 167.89 1.93187C169.371 3.48666 169.887 5.65983 169.877 7.7447C169.764 11.2937 168.029 15.7286 165.563 18.3406C165.414 18.4985 165.277 18.6609 165.138 18.8273C163.013 21.2399 159.385 22.6825 156.221 22.9411C155.567 22.976 154.911 22.9816 154.256 22.9905C154.069 22.9934 153.882 22.9964 153.696 22.9994C153.154 23.0077 152.613 23.0143 152.071 23.0201C152 23.0209 151.929 23.0216 151.855 23.0224C151.015 23.0309 150.175 23.0297 149.335 23.0219C149.091 23.0199 148.847 23.0185 148.603 23.0171C148.135 23.0142 147.667 23.0095 147.199 23.0036C147.014 23.0014 146.828 22.9998 146.643 22.9987C146.384 22.9971 146.126 22.9934 145.867 22.9892C145.75 22.9891 145.75 22.9891 145.63 22.989C145.326 22.9824 145.11 22.9731 144.838 22.8294C144.493 22.1779 144.833 21.3878 145.036 20.7373C145.068 20.6333 145.099 20.5293 145.131 20.4252C145.197 20.2085 145.263 19.9921 145.331 19.7758C145.416 19.4996 145.501 19.2231 145.585 18.9464C145.65 18.732 145.716 18.5179 145.781 18.3037C145.828 18.1526 145.874 18.0014 145.92 17.8502C145.949 17.7579 145.978 17.6656 146.007 17.5704C146.045 17.4492 146.045 17.4492 146.083 17.3256C146.2 17.0009 146.317 16.7075 146.565 16.4618C146.835 16.3905 147.087 16.3733 147.365 16.3749C147.443 16.3751 147.522 16.3754 147.603 16.3756C147.689 16.3763 147.774 16.3769 147.862 16.3776C147.953 16.378 148.044 16.3783 148.137 16.3787C148.334 16.3795 148.532 16.3805 148.729 16.3817C149.042 16.3834 149.356 16.3845 149.669 16.3855C150.561 16.3881 151.453 16.3913 152.344 16.3963C152.837 16.3991 153.33 16.401 153.822 16.4019C154.082 16.4024 154.342 16.4035 154.602 16.4054C156.772 16.4213 158.964 16.3897 160.63 14.8222C162.025 13.3753 162.886 10.7776 162.856 8.78926C162.817 8.01352 162.664 7.39114 162.065 6.85369C160.916 6.08707 158.921 6.40336 157.585 6.40559C157.265 6.406 156.945 6.40562 156.625 6.40537C156.09 6.40509 155.554 6.40546 155.018 6.40622C154.401 6.40708 153.784 6.40679 153.166 6.40593C152.633 6.40521 152.1 6.40511 151.567 6.40552C151.25 6.40577 150.933 6.40581 150.616 6.40528C150.318 6.40482 150.02 6.40515 149.722 6.40605C149.563 6.40636 149.403 6.40589 149.243 6.4054C147.997 6.40181 147.997 6.40181 146.885 6.89294C146.148 7.65854 145.91 8.91448 145.62 9.89672C145.568 10.0684 145.517 10.2401 145.465 10.4117C145.326 10.8734 145.188 11.3356 145.05 11.7978C144.905 12.2843 144.759 12.7705 144.613 13.2567C144.432 13.8581 144.252 14.4595 144.071 15.0611C143.675 16.3842 143.277 17.7065 142.875 19.028C142.849 19.1141 142.823 19.2002 142.796 19.2889C142.666 19.7144 142.537 20.14 142.408 20.5655C141.545 23.4038 141.545 23.4038 140.7 26.2474C140.683 26.3033 140.667 26.3591 140.65 26.4166C140.489 26.9638 140.329 27.5111 140.171 28.059C140.123 28.2243 140.075 28.3896 140.026 28.5549C139.996 28.6627 139.996 28.6627 139.964 28.7727C139.696 29.6872 139.696 29.6872 139.463 29.9735C138.915 30.2126 138.29 30.1543 137.7 30.1525C137.591 30.1526 137.483 30.1528 137.374 30.153C137.147 30.1532 136.92 30.1529 136.694 30.1521C136.404 30.1512 136.115 30.1517 135.825 30.1527C135.601 30.1533 135.377 30.1531 135.153 30.1527C134.995 30.1525 134.837 30.153 134.679 30.1535C133.735 30.1486 133.735 30.1486 133.319 29.9735C133.106 29.6567 133.122 29.3917 133.159 29.0253C133.225 28.7135 133.317 28.4115 133.412 28.1071C133.439 28.0172 133.466 27.9274 133.494 27.8348C133.568 27.5873 133.644 27.3401 133.72 27.093C133.802 26.825 133.883 26.5567 133.964 26.2883C134.085 25.8873 134.206 25.4865 134.328 25.0857C134.553 24.3457 134.776 23.605 134.998 22.8639C135.066 22.6351 135.135 22.4062 135.203 22.1773C135.22 22.1198 135.238 22.0624 135.255 22.0031C136.003 19.5028 136.759 17.0048 137.515 14.5068C137.592 14.2544 137.668 14.0021 137.744 13.7497C138.076 12.6515 138.41 11.5537 138.745 10.4566C138.781 10.341 138.781 10.341 138.817 10.223C138.957 9.76476 139.098 9.30678 139.239 8.84907C139.283 8.70889 139.326 8.56865 139.369 8.42836C139.87 6.7964 140.462 5.25134 141.538 3.89832C141.597 3.82335 141.655 3.74838 141.715 3.67115C142.075 3.22142 142.442 2.83351 142.895 2.47603C142.999 2.38757 142.999 2.38757 143.106 2.29732C144.236 1.38045 145.57 0.754978 146.964 0.34261C147.016 0.327064 147.068 0.311518 147.122 0.295501C148.265 -0.0400993 149.372 -0.155231 150.56 -0.153187Z" fill="#FE8718"/>
<path d="M103.777 -0.211846C103.835 -0.211848 103.893 -0.21185 103.953 -0.211853C105.635 -0.211695 105.635 -0.211695 106.418 -0.194156C106.534 -0.191827 106.65 -0.190204 106.767 -0.18914C106.944 -0.18746 107.121 -0.183809 107.299 -0.179688C107.448 -0.177205 107.448 -0.177205 107.6 -0.174672C107.922 -0.121655 108.054 -0.0673335 108.261 0.184525C108.357 0.834517 108.131 1.43898 107.944 2.05744C107.91 2.16885 107.877 2.28026 107.844 2.39169C107.775 2.62406 107.706 2.85619 107.635 3.0882C107.546 3.38469 107.458 3.68175 107.371 3.97901C107.303 4.20881 107.234 4.43825 107.165 4.66759C107.132 4.77698 107.1 4.88648 107.068 4.9961C107.023 5.14939 106.976 5.30215 106.929 5.45489C106.903 5.5417 106.877 5.62852 106.851 5.71796C106.713 6.02318 106.63 6.15867 106.346 6.34775C105.994 6.40503 105.646 6.39758 105.29 6.3926C105.181 6.39249 105.073 6.39255 104.964 6.39278C104.67 6.39289 104.376 6.39057 104.082 6.38781C103.774 6.38534 103.467 6.38511 103.159 6.38464C102.577 6.38341 101.995 6.38017 101.413 6.3762C100.75 6.37178 100.087 6.36961 99.424 6.36763C98.0606 6.3635 96.6973 6.35655 95.3339 6.34775C95.3239 6.39952 95.3139 6.4513 95.3035 6.50464C95.2311 6.87211 95.1554 7.23334 95.0449 7.59178C95.0077 7.71325 95.0077 7.71325 94.9699 7.83716C94.9431 7.92338 94.9163 8.00961 94.8888 8.09844C94.8602 8.19174 94.8316 8.28504 94.8021 8.38117C94.7399 8.58409 94.6775 8.78696 94.6149 8.98978C94.46 9.49208 94.3063 9.99476 94.1526 10.4974C94.1164 10.6157 94.0802 10.734 94.044 10.8523C93.6475 12.1471 93.2577 13.4439 92.8691 14.7411C92.7037 15.2935 92.538 15.8458 92.3723 16.3982C92.3536 16.4607 92.3348 16.5232 92.3155 16.5876C91.7399 18.5067 91.161 20.4248 90.5814 22.3427C90.5598 22.4139 90.5383 22.4851 90.5161 22.5585C90.4947 22.6294 90.4733 22.7003 90.4512 22.7733C90.4299 22.8437 90.4086 22.9142 90.3867 22.9868C90.344 23.1279 90.3014 23.2691 90.2587 23.4102C90.0019 24.2599 89.7459 25.1097 89.4912 25.96C89.3729 26.3551 89.2542 26.7501 89.1354 27.1451C89.0582 27.402 88.9811 27.659 88.9046 27.916C88.8223 28.1923 88.7393 28.4684 88.6561 28.7444C88.6325 28.8242 88.6089 28.904 88.5846 28.9862C88.3543 29.746 88.3543 29.746 88.1521 29.9734C87.6221 30.2172 87.0144 30.1559 86.4414 30.1552C86.329 30.1555 86.2167 30.1559 86.1043 30.1563C85.8696 30.1568 85.6348 30.1568 85.4001 30.1564C85.1003 30.156 84.8007 30.1573 84.501 30.1591C84.2692 30.1603 84.0374 30.1604 83.8056 30.1601C83.6951 30.1602 83.5847 30.1606 83.4742 30.1614C82.387 30.1683 82.387 30.1683 81.9278 29.8944C81.6579 29.3598 81.9245 28.6736 82.0893 28.1431C82.1155 28.056 82.1417 27.9689 82.1687 27.8791C82.2416 27.6372 82.3154 27.3956 82.3895 27.1541C82.47 26.8911 82.5493 26.6278 82.6288 26.3645C82.7697 25.8981 82.9113 25.4319 83.0532 24.9657C83.2961 24.168 83.5367 23.3697 83.7772 22.5713C83.8629 22.2867 83.9487 22.0022 84.0344 21.7176C84.0667 21.6106 84.0667 21.6106 84.0996 21.5014C84.343 20.6937 84.587 19.8861 84.8311 19.0785C85.1717 17.9514 85.5122 16.8242 85.8523 15.6969C85.872 15.6314 85.8918 15.5659 85.9122 15.4984C86.1242 14.7955 86.3362 14.0927 86.5481 13.3899C86.6035 13.2061 86.6589 13.0224 86.7143 12.8386C86.7506 12.7182 86.7869 12.5978 86.8232 12.4774C87.0508 11.7227 87.2787 10.968 87.5069 10.2134C87.6203 9.83842 87.7336 9.46342 87.8468 9.08841C87.9213 8.8418 87.9958 8.59522 88.0705 8.34867C88.1508 8.08341 88.231 7.81808 88.311 7.55274C88.3345 7.4756 88.3579 7.39847 88.382 7.319C88.4033 7.24824 88.4246 7.17748 88.4466 7.10457C88.465 7.04379 88.4834 6.98301 88.5023 6.92038C88.5544 6.73079 88.594 6.54076 88.6309 6.34775C88.5181 6.35134 88.5181 6.35134 88.403 6.355C86.5504 6.41236 84.6982 6.43557 82.8448 6.43651C82.6833 6.43664 82.5218 6.43692 82.3604 6.43724C81.6575 6.43832 80.9549 6.43437 80.2521 6.42676C80.155 6.42614 80.0578 6.42551 79.9578 6.42486C79.6794 6.42246 79.4011 6.41734 79.1227 6.41133C79.0396 6.41092 78.9565 6.41051 78.8708 6.41008C78.316 6.39376 78.316 6.39376 78.0434 6.1808C77.841 5.74317 77.9392 5.32591 78.072 4.87882C78.116 4.72893 78.116 4.72893 78.1609 4.57601C78.1933 4.4684 78.2258 4.3608 78.2584 4.25322C78.2916 4.14159 78.3249 4.02994 78.358 3.91829C78.4276 3.68503 78.4977 3.45194 78.5682 3.21895C78.6582 2.9211 78.7467 2.62283 78.8348 2.3244C78.903 2.094 78.9721 1.86386 79.0415 1.63379C79.0744 1.52393 79.1071 1.41399 79.1396 1.30396C79.185 1.14999 79.2318 0.996412 79.2787 0.842848C79.3049 0.755556 79.3311 0.668265 79.3581 0.578328C79.4814 0.275352 79.6311 0.0178938 79.9329 -0.131537C80.0515 -0.139281 80.1705 -0.142113 80.2895 -0.142494C80.365 -0.142927 80.4405 -0.143359 80.5182 -0.143805C80.6018 -0.143882 80.6853 -0.143959 80.7714 -0.144039C80.8597 -0.144429 80.948 -0.144819 81.039 -0.145221C81.3371 -0.146442 81.6351 -0.147099 81.9332 -0.147761C82.1462 -0.148518 82.3592 -0.149305 82.5722 -0.150131C83.0927 -0.152079 83.6132 -0.153611 84.1337 -0.155011C84.7422 -0.156666 85.3507 -0.158757 85.9592 -0.160872C87.0483 -0.164644 88.1375 -0.168059 89.2266 -0.171257C90.2774 -0.174344 91.3283 -0.177616 92.3791 -0.181134C92.4434 -0.18135 92.5077 -0.181565 92.574 -0.181787C92.8327 -0.182653 93.0914 -0.183521 93.3501 -0.18439C94.5397 -0.188382 95.7293 -0.192238 96.9189 -0.196046C96.9786 -0.196237 97.0382 -0.196428 97.0996 -0.196625C101.872 -0.211886 101.872 -0.211886 103.777 -0.211846Z" fill="#FE8718"/>
<path d="M21.8964 6.25729C22.0149 6.25705 22.1335 6.25679 22.2521 6.25649C22.573 6.25579 22.8939 6.2556 23.2148 6.25555C23.4161 6.2555 23.6173 6.25533 23.8186 6.25512C24.5231 6.25439 25.2275 6.25407 25.932 6.25413C26.5847 6.25417 27.2374 6.25334 27.8901 6.25209C28.4533 6.25105 29.0165 6.25064 29.5797 6.25069C29.9148 6.25071 30.2499 6.25049 30.585 6.24965C33.613 6.24254 36.406 6.36862 38.7284 8.52658C40.2176 10.0554 40.5587 11.8788 40.5316 13.9376C40.5109 14.6791 40.3881 15.3523 40.1919 16.0667C40.1674 16.1562 40.1428 16.2456 40.1176 16.3378C39.8629 17.2521 39.5886 18.1607 39.3141 19.0693C39.2852 19.1648 39.2564 19.2604 39.2267 19.3588C38.9185 20.3791 38.6098 21.3993 38.2992 22.4189C37.9476 23.5737 37.5989 24.7292 37.2598 25.8876C37.1566 26.2398 37.0528 26.5919 36.949 26.9439C36.8508 27.2775 36.7538 27.6113 36.6575 27.9454C36.6123 28.1018 36.5664 28.258 36.5203 28.4142C36.4645 28.6034 36.4095 28.793 36.3557 28.9829C36.3308 29.0664 36.3058 29.15 36.28 29.2361C36.259 29.3084 36.2381 29.3807 36.2164 29.4551C36.0918 29.7225 35.9571 29.8704 35.7232 30.0525C35.4683 30.1011 35.4683 30.1011 35.1775 30.0999C35.1243 30.1002 35.071 30.1005 35.0161 30.1008C34.841 30.1013 34.6661 30.099 34.491 30.0966C34.3689 30.0963 34.2467 30.0961 34.1246 30.0961C33.8691 30.0956 33.6137 30.0938 33.3582 30.091C33.0309 30.0874 32.7037 30.0862 32.3764 30.0859C32.1244 30.0856 31.8724 30.0844 31.6204 30.0829C31.4997 30.0822 31.379 30.0816 31.2584 30.0813C31.0897 30.0806 30.9211 30.0788 30.7525 30.0767C30.6565 30.0759 30.5606 30.075 30.4618 30.0742C30.0858 30.0409 30.0858 30.0409 29.8979 29.8945C29.7972 29.6104 29.8204 29.4082 29.9041 29.1235C29.9254 29.0496 29.9466 28.9758 29.9685 28.8997C29.9928 28.8191 30.017 28.7385 30.0419 28.6555C30.0671 28.5692 30.0923 28.4828 30.1183 28.3939C30.2034 28.1036 30.29 27.8138 30.3767 27.524C30.407 27.4221 30.4373 27.3202 30.4675 27.2183C30.686 26.4826 30.9072 25.7476 31.1288 25.0128C31.224 24.697 31.319 24.3812 31.414 24.0653C31.4333 24.0011 31.4526 23.9369 31.4725 23.8708C31.5118 23.7399 31.5512 23.609 31.5906 23.4781C31.6502 23.2797 31.7099 23.0813 31.7696 22.8829C32.1685 21.5569 32.5664 20.2306 32.9633 18.904C33.0374 18.6561 33.1117 18.4082 33.186 18.1604C33.2732 17.8698 33.3602 17.5792 33.447 17.2886C33.4788 17.1822 33.5107 17.0758 33.5427 16.9695C33.5863 16.8243 33.6296 16.679 33.673 16.5338C33.6973 16.4526 33.7216 16.3715 33.7466 16.2879C33.9632 15.5077 34.032 14.6181 33.6743 13.8713C33.2799 13.218 32.8265 12.8845 32.0995 12.6664C31.6676 12.5615 31.2415 12.5679 30.799 12.5696C30.7073 12.5693 30.6156 12.569 30.5211 12.5687C30.2197 12.568 29.9182 12.5685 29.6168 12.569C29.4069 12.5689 29.1971 12.5688 28.9873 12.5686C28.5485 12.5683 28.1097 12.5687 27.6709 12.5694C27.1633 12.5703 26.6558 12.57 26.1483 12.5691C25.6595 12.5683 25.1708 12.5684 24.682 12.5689C24.4741 12.569 24.2662 12.5689 24.0583 12.5685C23.7687 12.5681 23.4791 12.5687 23.1895 12.5696C23.0598 12.5691 23.0598 12.5691 22.9274 12.5686C22.8489 12.5691 22.7704 12.5695 22.6895 12.57C22.621 12.57 22.5525 12.5701 22.482 12.5701C22.2993 12.5751 22.2993 12.5751 22.1575 12.7481C22.1006 12.9082 22.0503 13.0708 22.0033 13.2341C21.9887 13.2842 21.9741 13.3343 21.9591 13.386C21.9104 13.5536 21.8625 13.7214 21.8146 13.8892C21.7803 14.0078 21.746 14.1265 21.7116 14.2451C21.6384 14.4983 21.5655 14.7515 21.4929 15.0047C21.3797 15.3996 21.2656 15.7943 21.1515 16.189C20.8359 17.2812 20.522 18.374 20.2101 19.4673C20.1067 19.8296 20.003 20.1919 19.8993 20.5541C19.8294 20.7992 19.7601 21.0445 19.6909 21.2898C19.6491 21.436 19.6074 21.5822 19.5656 21.7284C19.5473 21.7939 19.529 21.8595 19.5102 21.9271C19.3827 22.37 19.3827 22.37 19.205 22.546C18.8301 22.5706 18.5099 22.5283 18.1485 22.4325C18.0537 22.4077 17.959 22.3829 17.8613 22.3573C17.7605 22.3301 17.6596 22.303 17.5557 22.275C17.4499 22.247 17.3442 22.219 17.2384 22.1911C17.0175 22.1327 16.7968 22.0738 16.5762 22.0145C16.2938 21.9387 16.0113 21.8638 15.7286 21.7892C15.5105 21.7316 15.2924 21.6737 15.0745 21.6156C14.9198 21.5744 14.7651 21.5334 14.6103 21.4924C14.5163 21.4671 14.4223 21.4418 14.3254 21.4157C14.2427 21.3936 14.1601 21.3715 14.0749 21.3488C13.6894 21.2294 13.6894 21.2294 13.5393 21.1237C13.411 20.7932 13.4904 20.5416 13.5888 20.2103C13.6111 20.134 13.6111 20.134 13.6338 20.0562C13.6834 19.8867 13.7343 19.7177 13.7853 19.5487C13.8209 19.4279 13.8565 19.3071 13.892 19.1864C13.9879 18.8608 14.0849 18.5355 14.1821 18.2102C14.2831 17.8716 14.3831 17.5327 14.4832 17.1939C14.6263 16.7094 14.7698 16.2251 14.9136 15.7408C15.1573 14.9202 15.3983 14.0989 15.6378 13.2771C15.6707 13.1641 15.7036 13.0512 15.7366 12.9382C15.8603 12.5139 15.9841 12.0895 16.1075 11.6651C17.0097 8.56688 17.0097 8.56688 17.5292 7.9281C17.5759 7.86821 17.6226 7.80832 17.6707 7.74661C18.4034 6.86422 19.3789 6.41987 20.516 6.2851C20.975 6.24856 21.4361 6.25711 21.8964 6.25729Z" fill="#FE8718"/>
<path d="M103.746 23.6411C103.893 23.6408 103.893 23.6408 104.043 23.6404C104.313 23.6399 104.584 23.6397 104.854 23.6396C105.146 23.6395 105.439 23.6389 105.731 23.6383C106.369 23.6373 107.007 23.6368 107.645 23.6364C108.043 23.6362 108.442 23.6359 108.84 23.6355C109.944 23.6346 111.048 23.6337 112.152 23.6335C112.222 23.6335 112.293 23.6334 112.366 23.6334C112.436 23.6334 112.507 23.6334 112.58 23.6334C112.723 23.6333 112.866 23.6333 113.01 23.6333C113.081 23.6332 113.152 23.6332 113.225 23.6332C114.378 23.6329 115.531 23.6315 116.684 23.6297C117.868 23.6278 119.053 23.6268 120.237 23.6267C120.902 23.6267 121.566 23.6262 122.231 23.6248C122.797 23.6235 123.362 23.6231 123.928 23.6238C124.216 23.6241 124.505 23.624 124.794 23.6229C125.106 23.6217 125.419 23.6224 125.732 23.6232C125.869 23.6223 125.869 23.6223 126.008 23.6213C126.907 23.6269 126.907 23.6269 127.252 23.9683C127.31 24.6326 127.124 25.2103 126.931 25.8412C126.898 25.9526 126.865 26.064 126.832 26.1755C126.762 26.4078 126.692 26.64 126.622 26.872C126.531 27.1685 126.443 27.4656 126.355 27.7628C126.287 27.9925 126.218 28.222 126.148 28.4514C126.115 28.5608 126.083 28.6703 126.05 28.7799C126.005 28.9331 125.958 29.0859 125.911 29.2387C125.885 29.3255 125.859 29.4123 125.832 29.5017C125.727 29.7581 125.608 29.931 125.416 30.1315C125.163 30.2151 124.985 30.2204 124.719 30.2203C124.623 30.2204 124.527 30.2206 124.428 30.2207C124.321 30.2205 124.213 30.2203 124.106 30.22C123.993 30.2201 123.879 30.2202 123.766 30.2203C123.453 30.2204 123.141 30.2201 122.829 30.2197C122.492 30.2194 122.155 30.2195 121.819 30.2196C121.235 30.2196 120.652 30.2193 120.068 30.2189C119.224 30.2183 118.381 30.2181 117.537 30.218C116.168 30.2178 114.8 30.2173 113.431 30.2165C112.101 30.2158 110.771 30.2152 109.442 30.2149C109.36 30.2149 109.278 30.2148 109.193 30.2148C108.782 30.2147 108.371 30.2146 107.96 30.2145C104.549 30.2137 101.138 30.2123 97.7266 30.2105C97.8117 29.5144 97.8117 29.5144 97.8957 29.2388C97.9133 29.1802 97.931 29.1216 97.9491 29.0613C97.9682 29.0001 97.9872 28.9389 98.0068 28.8759C98.0268 28.8107 98.0468 28.7454 98.0674 28.6782C98.1097 28.5408 98.1523 28.4035 98.1952 28.2662C98.2596 28.0593 98.3225 27.852 98.3854 27.6447C98.8056 26.2777 99.3427 25.0012 100.633 24.2245C101.653 23.7378 102.63 23.6403 103.746 23.6411Z" fill="#FE8718"/>
<path d="M108.64 11.6997C108.741 11.6994 108.843 11.699 108.947 11.6986C109.228 11.6977 109.509 11.6977 109.79 11.6979C110.093 11.6979 110.396 11.697 110.699 11.6963C111.293 11.695 111.886 11.6945 112.48 11.6945C112.962 11.6944 113.444 11.6941 113.927 11.6936C115.294 11.6922 116.662 11.6914 118.029 11.6916C118.14 11.6916 118.14 11.6916 118.253 11.6916C118.363 11.6916 118.363 11.6916 118.476 11.6916C119.673 11.6917 120.869 11.6901 122.066 11.6879C123.295 11.6856 124.523 11.6846 125.752 11.6847C126.442 11.6847 127.132 11.6843 127.822 11.6826C128.409 11.6812 128.996 11.6808 129.583 11.6819C129.882 11.6824 130.182 11.6824 130.481 11.6811C130.806 11.6796 131.13 11.6806 131.455 11.6818C131.55 11.681 131.645 11.6802 131.742 11.6793C132.375 11.6846 132.375 11.6846 132.7 11.8647C132.839 12.0369 132.839 12.0369 132.872 12.3026C132.841 12.5754 132.792 12.8171 132.713 13.0799C132.685 13.1741 132.657 13.2683 132.629 13.3654C132.598 13.4675 132.566 13.5695 132.535 13.6716C132.503 13.7781 132.471 13.8846 132.439 13.9911C132.37 14.2191 132.301 14.4469 132.232 14.6747C132.136 14.9907 132.042 15.3075 131.95 15.6246C131.874 15.8849 131.796 16.1449 131.719 16.4048C131.681 16.5312 131.644 16.6576 131.608 16.7842C131.556 16.9622 131.503 17.1397 131.449 17.3171C131.434 17.3699 131.419 17.4227 131.404 17.4771C131.293 17.8357 131.159 17.9961 130.844 18.2001C130.618 18.2394 130.618 18.2394 130.364 18.239C130.267 18.2397 130.17 18.2403 130.07 18.2409C129.963 18.24 129.856 18.2391 129.748 18.2382C129.634 18.2383 129.52 18.2386 129.406 18.239C129.092 18.2397 128.778 18.2384 128.464 18.2368C128.125 18.2355 127.787 18.2359 127.448 18.2362C126.862 18.2363 126.276 18.2353 125.689 18.2336C124.841 18.231 123.993 18.2302 123.145 18.2298C121.769 18.2291 120.394 18.227 119.018 18.224C117.682 18.2211 116.345 18.2188 115.009 18.2175C114.885 18.2174 114.885 18.2174 114.759 18.2173C114.346 18.2168 113.933 18.2164 113.52 18.216C110.091 18.2128 106.663 18.2072 103.234 18.2001C103.272 18.0484 103.311 17.8966 103.349 17.7448C103.37 17.6603 103.391 17.5758 103.413 17.4887C104.441 13.4798 104.441 13.4798 106.027 12.353C106.9 11.8405 107.639 11.6971 108.64 11.6997Z" fill="#FE8718"/>
<path d="M115.235 -0.142575C115.335 -0.14281 115.434 -0.143045 115.537 -0.143287C115.813 -0.143922 116.088 -0.144066 116.363 -0.144124C116.661 -0.144271 116.958 -0.144867 117.256 -0.145399C117.906 -0.14647 118.555 -0.146948 119.205 -0.147296C119.611 -0.147515 120.016 -0.14785 120.422 -0.148205C121.545 -0.149168 122.669 -0.149982 123.792 -0.15025C123.9 -0.150276 123.9 -0.150276 124.01 -0.150303C124.118 -0.150328 124.118 -0.150328 124.228 -0.150355C124.374 -0.15039 124.52 -0.150425 124.666 -0.150461C124.738 -0.150478 124.81 -0.150496 124.885 -0.150514C126.059 -0.150826 127.233 -0.152206 128.407 -0.154045C129.612 -0.155917 130.817 -0.156903 132.023 -0.156995C132.699 -0.157068 133.376 -0.157524 134.053 -0.158956C134.629 -0.160172 135.205 -0.160579 135.78 -0.159925C136.074 -0.159616 136.368 -0.159693 136.662 -0.160799C136.98 -0.161986 137.299 -0.161344 137.617 -0.160516C137.757 -0.161471 137.757 -0.161471 137.899 -0.162445C138.027 -0.161664 138.027 -0.161664 138.158 -0.160867C138.231 -0.160914 138.305 -0.160962 138.38 -0.16101C138.653 -0.121748 138.868 -0.00935183 139.064 0.184584C139.122 0.845306 138.936 1.41411 138.741 2.04022C138.707 2.14984 138.674 2.25949 138.641 2.36915C138.571 2.59779 138.5 2.82622 138.429 3.0545C138.339 3.34634 138.249 3.63857 138.161 3.93096C138.092 4.15696 138.022 4.38279 137.953 4.60856C137.92 4.71626 137.887 4.824 137.854 4.93178C137.808 5.08241 137.761 5.2328 137.714 5.38318C137.688 5.4686 137.661 5.55401 137.634 5.64201C137.422 6.21284 137.422 6.21284 137.149 6.34781C136.998 6.35529 136.848 6.35758 136.697 6.35753C136.6 6.35769 136.503 6.35785 136.404 6.35801C136.295 6.35778 136.187 6.35755 136.078 6.35731C135.964 6.35735 135.85 6.35741 135.735 6.35751C135.42 6.35769 135.105 6.35737 134.789 6.35698C134.45 6.35664 134.11 6.35675 133.77 6.35681C133.182 6.35686 132.593 6.35661 132.004 6.35616C131.153 6.35552 130.301 6.35532 129.45 6.35522C128.069 6.35504 126.688 6.35452 125.306 6.35377C123.965 6.35304 122.623 6.35249 121.281 6.35215C121.157 6.35212 121.157 6.35212 121.03 6.35209C120.615 6.35198 120.201 6.35188 119.786 6.35179C116.344 6.35097 112.901 6.34957 109.459 6.34781C109.556 6.01385 109.654 5.67993 109.752 5.34604C109.785 5.23281 109.818 5.11957 109.851 5.00633C110.919 1.34332 110.919 1.34332 112.414 0.463917C113.366 -0.023794 114.182 -0.143353 115.235 -0.142575Z" fill="#FE8718"/>
<path d="M9.87043 -0.171153C9.95245 -0.171793 9.95245 -0.171793 10.0361 -0.172446C10.216 -0.173431 10.3958 -0.172132 10.5757 -0.170709C10.7012 -0.170721 10.8267 -0.170839 10.9522 -0.171057C11.2149 -0.171167 11.4775 -0.170176 11.7402 -0.168375C12.0764 -0.166132 12.4126 -0.166348 12.7488 -0.167355C13.0079 -0.167905 13.2669 -0.167288 13.5259 -0.166307C13.6499 -0.165951 13.7738 -0.165923 13.8978 -0.166233C14.0712 -0.166464 14.2446 -0.165156 14.418 -0.163436C14.5658 -0.162796 14.5658 -0.162796 14.7167 -0.162143C15.0004 -0.128759 15.1521 -0.0681809 15.376 0.105537C15.5385 0.598851 15.3816 1.02393 15.2358 1.50158C15.2106 1.58698 15.1855 1.67237 15.1596 1.76036C15.0887 2.00039 15.0166 2.24007 14.944 2.47961C14.8964 2.63671 14.8492 2.79391 14.8021 2.95115C14.5671 3.73563 14.3291 4.5192 14.0905 5.30261C13.9205 5.86128 13.751 6.42012 13.5814 6.97893C13.5373 7.12422 13.4932 7.26951 13.4491 7.41479C13.0132 8.85069 12.5802 10.2874 12.1485 11.7245C12.0231 12.1421 11.8975 12.5597 11.7718 12.9772C11.375 14.2949 10.98 15.613 10.5927 16.9335C10.488 17.2902 10.3827 17.6467 10.2774 18.0032C10.1802 18.3325 10.0841 18.6621 9.9888 18.9919C9.91728 19.2384 9.84425 19.4844 9.77146 19.7304C9.7467 19.8175 9.72193 19.9046 9.69642 19.9943C9.55784 20.4572 9.42823 20.7877 9.07198 21.1237C8.805 21.2118 8.60233 21.2138 8.32096 21.2155C8.26941 21.2158 8.21787 21.2162 8.16477 21.2166C7.99441 21.2178 7.82406 21.2183 7.6537 21.2188C7.53513 21.2192 7.41656 21.2197 7.29799 21.2201C7.04939 21.221 6.80079 21.2214 6.55219 21.2217C6.23404 21.2221 5.91591 21.224 5.59777 21.2263C5.35282 21.2278 5.10789 21.2282 4.86294 21.2283C4.74567 21.2285 4.6284 21.2292 4.51113 21.2302C4.34687 21.2316 4.18267 21.2314 4.01841 21.2309C3.92504 21.2312 3.83167 21.2315 3.73546 21.2318C3.45667 21.1993 3.31 21.1321 3.08713 20.9657C2.87199 20.6461 2.88534 20.3869 2.92754 20.0175C3.01456 19.6335 3.13026 19.2588 3.24704 18.8829C3.28141 18.7697 3.31569 18.6564 3.34988 18.5432C3.42357 18.2998 3.49788 18.0565 3.57267 17.8135C3.69293 17.4226 3.81182 17.0314 3.93053 16.6401C4.09739 16.0905 4.26484 15.5411 4.43263 14.9917C4.66946 14.2161 4.90425 13.4399 5.13819 12.6635C5.15665 12.6022 5.17511 12.5409 5.19413 12.4778C5.26874 12.2302 5.34333 11.9826 5.41791 11.7349C5.54887 11.3001 5.68004 10.8653 5.81131 10.4305C6.22979 9.0445 6.64726 7.65819 7.06363 6.27154C7.10948 6.11885 7.15534 5.96617 7.20119 5.81348C7.40073 5.14903 7.60021 4.48456 7.79949 3.82004C7.88121 3.54756 7.96301 3.2751 8.04483 3.00264C8.08245 2.87728 8.12005 2.75191 8.15761 2.62653C8.24256 2.34297 8.32793 2.05955 8.41445 1.77645C8.48359 1.54983 8.54935 1.32252 8.61355 1.09448C8.64689 0.980094 8.68025 0.865714 8.71363 0.75134C8.73479 0.672714 8.73479 0.672714 8.75638 0.5925C8.93673 -0.0128464 9.25717 -0.171071 9.87043 -0.171153Z" fill="#FE8718"/>
<path d="M12.5838 24.6004C13.1132 24.5776 13.5751 24.6615 14.089 24.7828C14.1727 24.8019 14.2564 24.821 14.3427 24.8407C14.616 24.9032 14.8891 24.9666 15.1623 25.03C15.545 25.1179 15.9279 25.2053 16.3109 25.2924C16.4071 25.3143 16.5033 25.3362 16.6024 25.3588C17.4357 25.5475 18.2722 25.7182 19.1102 25.8854C23.3656 26.7382 23.3656 26.7382 24.383 28.0286C24.4211 28.0886 24.4593 28.1486 24.4986 28.2104C24.5378 28.271 24.577 28.3316 24.6174 28.3941C24.7922 28.6811 24.8128 28.8755 24.8228 29.2129C24.8267 29.3032 24.8306 29.3934 24.8346 29.4864C24.7929 29.7364 24.7929 29.7364 24.6249 29.9077C24.3425 30.0847 24.1798 30.0917 23.8471 30.091C23.7661 30.0915 23.7661 30.0915 23.6835 30.092C23.5031 30.0927 23.3228 30.0911 23.1425 30.0896C23.0129 30.0896 22.8834 30.0898 22.7539 30.0901C22.4026 30.0906 22.0513 30.089 21.7 30.0871C21.3325 30.0854 20.965 30.0855 20.5976 30.0853C19.9808 30.0848 19.364 30.0831 18.7471 30.0807C17.9547 30.0775 17.1623 30.0761 16.3698 30.0753C15.6891 30.0747 15.0085 30.0733 14.3278 30.0718C14.1086 30.0713 13.8895 30.0709 13.6703 30.0705C13.3265 30.0698 12.9827 30.0687 12.6389 30.0672C12.5125 30.0667 12.3861 30.0664 12.2596 30.0661C12.0876 30.0658 11.9156 30.065 11.7436 30.0641C11.6471 30.0638 11.5507 30.0634 11.4514 30.0631C11.2272 30.0525 11.2272 30.0525 11.0676 29.9735C11.0252 29.4322 11.1809 28.967 11.3385 28.4524C11.3802 28.3135 11.3802 28.3135 11.4227 28.1718C11.4814 27.9764 11.5405 27.7812 11.6 27.586C11.6907 27.2882 11.7802 26.99 11.8695 26.6918C11.9268 26.5017 11.9842 26.3115 12.0417 26.1214C12.0684 26.0327 12.0951 25.944 12.1226 25.8525C12.2541 25.4223 12.3934 25.0086 12.5838 24.6004Z" fill="#FE8718"/>
<path d="M2.31816 24.5685C2.37774 24.568 2.43732 24.5674 2.49871 24.5669C2.69576 24.5654 2.89275 24.5657 3.0898 24.5662C3.22665 24.5658 3.36349 24.5654 3.50034 24.5649C3.78718 24.5642 4.074 24.5644 4.36084 24.5652C4.72876 24.5661 5.09661 24.5645 5.46452 24.5622C5.74711 24.5607 6.02969 24.5608 6.31228 24.5612C6.44794 24.5612 6.58361 24.5607 6.71927 24.5598C6.90881 24.5586 7.09823 24.5594 7.28777 24.5608C7.34399 24.56 7.40021 24.5593 7.45813 24.5585C7.70821 24.5622 7.84331 24.5728 8.03461 24.7387C8.1315 24.9541 8.12286 25.0448 8.06639 25.2721C8.04955 25.3418 8.03271 25.4114 8.01536 25.4832C7.99544 25.5569 7.97551 25.6307 7.95499 25.7066C7.93536 25.7805 7.91574 25.8543 7.89551 25.9303C7.82901 26.1723 7.75941 26.4133 7.68879 26.6542C7.6632 26.7418 7.63762 26.8294 7.61126 26.9196C7.55739 27.1033 7.50333 27.287 7.44908 27.4706C7.36632 27.7517 7.28504 28.0332 7.20376 28.3148C7.15107 28.4938 7.09829 28.6729 7.04542 28.8518C7.00936 28.9779 7.00936 28.9779 6.97258 29.1065C6.94916 29.1846 6.92573 29.2627 6.9016 29.3432C6.88153 29.4117 6.86145 29.4802 6.84077 29.5508C6.73704 29.7835 6.6468 29.9012 6.43883 30.0525C6.17538 30.0926 6.17538 30.0926 5.85826 30.0934C5.80036 30.094 5.74245 30.0945 5.68279 30.0951C5.49172 30.0965 5.30075 30.0956 5.10969 30.0945C4.97673 30.0947 4.84377 30.095 4.71081 30.0954C4.43228 30.0959 4.15379 30.0952 3.87528 30.0937C3.51837 30.0919 3.16154 30.093 2.80463 30.0948C2.53012 30.096 2.25562 30.0956 1.9811 30.0948C1.84951 30.0946 1.71792 30.0949 1.58634 30.0956C1.40236 30.0964 1.2185 30.0952 1.03454 30.0934C0.929887 30.0932 0.825238 30.0929 0.717418 30.0926C0.453974 30.0525 0.453974 30.0525 0.257934 29.9091C0.134782 29.7364 0.134782 29.7364 0.137314 29.4623C0.222154 29.0062 0.360183 28.5617 0.493249 28.1176C0.520908 28.0243 0.548566 27.9311 0.577063 27.835C0.635433 27.6388 0.694065 27.4427 0.752944 27.2467C0.843021 26.9461 0.931726 26.6452 1.02035 26.3442C1.07731 26.1534 1.13435 25.9626 1.19148 25.7718C1.21792 25.6816 1.24437 25.5915 1.27161 25.4987C1.29689 25.4153 1.32218 25.3319 1.34823 25.246C1.37014 25.1727 1.39205 25.0993 1.41463 25.0237C1.60164 24.5697 1.85566 24.5656 2.31816 24.5685Z" fill="#FE8718"/>
</g>
<defs>
<clipPath id="clip0_2449_2">
<rect width="170" height="30" fill="white"/>
</clipPath>
</defs>
</svg>
